<?xml version="1.0" encoding="UTF-8"?>
<svg xmlns="http://www.w3.org/2000/svg" xmlns:xlink="http://www.w3.org/1999/xlink" width="504pt" height="493pt" viewBox="0 0 504 493" version="1.1">
<defs>
<clipPath id="clip1">
  <path d="M 7.199219 24.480469 L 496.800781 24.480469 L 496.800781 485.800781 L 7.199219 485.800781 Z M 7.199219 24.480469 "/>
</clipPath>
</defs>
<g id="surface6561">
<rect x="0" y="0" width="504" height="493" style="fill:rgb(100%,100%,100%);fill-opacity:1;stroke:none;"/>
<g clip-path="url(#clip1)" clip-rule="nonzero">
<path style="fill-rule:nonzero;fill:rgb(100%,100%,100%);fill-opacity:1;stroke-width:0.75;stroke-linecap:round;stroke-linejoin:round;stroke:rgb(100%,100%,100%);stroke-opacity:1;stroke-miterlimit:10;" d="M 7.199219 485.800781 L 496.800781 485.800781 L 496.800781 24.480469 L 7.199219 24.480469 Z M 7.199219 485.800781 "/>
<path style=" stroke:none;fill-rule:nonzero;fill:rgb(96.862745%,96.862745%,96.862745%);fill-opacity:1;" d="M 7.199219 485.800781 L 496.800781 485.800781 L 496.800781 24.480469 L 7.199219 24.480469 Z M 7.199219 485.800781 "/>
</g>
<path style="fill-rule:evenodd;fill:rgb(80%,80%,80%);fill-opacity:1;stroke-width:0.525;stroke-linecap:round;stroke-linejoin:round;stroke:rgb(20%,20%,20%);stroke-opacity:1;stroke-miterlimit:10;" d="M 291.722656 324.144531 L 291.902344 336.113281 L 280.765625 336.113281 L 280.785156 354.140625 L 281.472656 356.308594 L 288.492188 362.636719 L 274.296875 364.898438 L 263.027344 363.253906 L 261.328125 361.183594 L 236.464844 361.292969 L 232.183594 358.652344 L 224.46875 360.394531 L 224.390625 352.035156 L 227.261719 346.042969 L 228.582031 338.609375 L 234.796875 331.863281 L 235.417969 322.847656 L 231.25 314.164062 L 233.304688 309.867188 L 230.324219 301.976562 L 227.273438 297.59375 L 232.28125 296.191406 L 249.546875 296.179688 L 256.316406 308.566406 L 266.300781 308.105469 L 267.21875 302.542969 L 273.222656 302.066406 L 272.722656 304.125 L 279.691406 304.105469 L 280.546875 310.878906 L 280.074219 317.117188 L 282.605469 321.320312 L 282.1875 326.261719 Z M 291.722656 324.144531 "/>
<path style="fill-rule:evenodd;fill:rgb(80%,80%,80%);fill-opacity:1;stroke-width:0.525;stroke-linecap:round;stroke-linejoin:round;stroke:rgb(20%,20%,20%);stroke-opacity:1;stroke-miterlimit:10;" d="M 231.675781 289.40625 L 228.207031 291.726562 L 226.917969 295.648438 L 225.808594 291.53125 L 230.464844 288.121094 Z M 231.675781 289.40625 "/>
<path style="fill-rule:evenodd;fill:rgb(80%,80%,80%);fill-opacity:1;stroke-width:0.525;stroke-linecap:round;stroke-linejoin:round;stroke:rgb(20%,20%,20%);stroke-opacity:1;stroke-miterlimit:10;" d="M 328.027344 277.0625 L 329.523438 280.253906 L 324.988281 287.394531 L 323.066406 288.382812 L 320.597656 282.214844 L 319.542969 278.828125 L 323.304688 279.3125 L 324.59375 276.601562 Z M 328.027344 277.0625 "/>
<path style="fill-rule:evenodd;fill:rgb(80%,80%,80%);fill-opacity:1;stroke-width:0.525;stroke-linecap:round;stroke-linejoin:round;stroke:rgb(20%,20%,20%);stroke-opacity:1;stroke-miterlimit:10;" d="M 179.4375 198.910156 L 180.765625 205.066406 L 174.621094 215.285156 L 174.515625 228.652344 L 168.539062 229.507812 L 168.4375 213.738281 L 166.949219 208.445312 L 163.851562 206.371094 L 164.582031 202.859375 L 167.546875 200.15625 L 170.695312 200.421875 L 172.789062 197.777344 L 173.957031 195.890625 L 176.765625 196.355469 Z M 179.4375 198.910156 "/>
<path style="fill-rule:evenodd;fill:rgb(80%,80%,80%);fill-opacity:1;stroke-width:0.525;stroke-linecap:round;stroke-linejoin:round;stroke:rgb(20%,20%,20%);stroke-opacity:1;stroke-miterlimit:10;" d="M 160.816406 180.695312 L 160.457031 182.769531 L 164.96875 191.167969 L 171.238281 193.214844 L 172.789062 197.777344 L 170.695312 200.421875 L 167.546875 200.15625 L 164.582031 202.859375 L 158.699219 202.0625 L 155.777344 202.851562 L 144.453125 202.898438 L 144.789062 211.285156 L 141.960938 208.9375 L 133.8125 210.203125 L 129.171875 206.042969 L 130.496094 198.117188 L 134.476562 196.351562 L 137.722656 188.886719 L 141.308594 188.617188 L 143.953125 185.636719 L 148.460938 184.75 L 155.464844 179.789062 Z M 160.816406 180.695312 "/>
<path style="fill-rule:evenodd;fill:rgb(80%,80%,80%);fill-opacity:1;stroke-width:0.525;stroke-linecap:round;stroke-linejoin:round;stroke:rgb(20%,20%,20%);stroke-opacity:1;stroke-miterlimit:10;" d="M 298.84375 363.523438 L 303.640625 373.453125 L 312.285156 379.367188 L 314.128906 385.679688 L 319.671875 386.984375 L 321.390625 389.292969 L 315.8125 391.667969 L 308.457031 398.027344 L 307.605469 401.660156 L 302.199219 404.6875 L 300.648438 409.996094 L 296.300781 411.277344 L 286.425781 408.109375 L 284.839844 412.230469 L 279.152344 417.589844 L 273.660156 417.816406 L 274.492188 413.132812 L 269.75 404.714844 L 269.734375 388.1875 L 275.210938 388.1875 L 275.226562 366.566406 L 288.105469 364.773438 L 289.652344 367.492188 L 292.910156 364.886719 Z M 298.84375 363.523438 "/>
<path style="fill-rule:evenodd;fill:rgb(80%,80%,80%);fill-opacity:1;stroke-width:0.525;stroke-linecap:round;stroke-linejoin:round;stroke:rgb(20%,20%,20%);stroke-opacity:1;stroke-miterlimit:10;" d="M 285.621094 203.273438 L 289.828125 208.941406 L 289.046875 215.222656 L 292.839844 215.746094 L 299.394531 223.28125 L 305.007812 227.070312 L 305.574219 230.113281 L 309.117188 231.976562 L 310.867188 235.839844 L 305.472656 235.929688 L 299.59375 234.410156 L 288.527344 238.515625 L 285.828125 237.207031 L 283.207031 241.015625 L 273.175781 239.496094 L 268.304688 235.480469 L 261.789062 240.070312 L 262.28125 244.652344 L 255.847656 243.371094 L 250.933594 244.71875 L 248.886719 251.496094 L 248.3125 248.039062 L 243.238281 243.09375 L 240.734375 238.324219 L 240.003906 231.121094 L 244.945312 222.238281 L 250.828125 220.3125 L 252.042969 222.089844 L 257.0625 219.671875 L 262.078125 219.320312 L 264.894531 213.929688 L 272.25 213.242188 L 283.414062 202.816406 Z M 285.621094 203.273438 "/>
<path style="fill-rule:evenodd;fill:rgb(80%,80%,80%);fill-opacity:1;stroke-width:0.525;stroke-linecap:round;stroke-linejoin:round;stroke:rgb(20%,20%,20%);stroke-opacity:1;stroke-miterlimit:10;" d="M 129.171875 206.042969 L 133.8125 210.203125 L 141.960938 208.9375 L 144.789062 211.285156 L 145.796875 218.421875 L 141.628906 227.273438 L 143.9375 235.40625 L 137.589844 234.949219 L 127.363281 236.066406 L 118.050781 239.8125 L 118.570312 231.546875 L 112.109375 227.960938 L 112.84375 222.046875 L 114.257812 222.121094 L 116.261719 211.726562 L 115.574219 207.519531 L 121.253906 207.386719 L 125.1875 204.386719 L 126.453125 207.363281 Z M 129.171875 206.042969 "/>
<path style="fill-rule:evenodd;fill:rgb(80%,80%,80%);fill-opacity:1;stroke-width:0.525;stroke-linecap:round;stroke-linejoin:round;stroke:rgb(20%,20%,20%);stroke-opacity:1;stroke-miterlimit:10;" d="M 244.945312 222.238281 L 240.003906 231.121094 L 240.734375 238.324219 L 243.238281 243.09375 L 248.3125 248.039062 L 248.886719 251.496094 L 248.679688 254.261719 L 238.253906 251.960938 L 232.890625 251.914062 L 222.019531 251.886719 L 213.628906 250.914062 L 214.289062 246.023438 L 212.632812 241.980469 L 209.0625 241.203125 L 206.984375 237.253906 L 208.425781 231.539062 L 215.390625 225.179688 L 218.054688 224.824219 L 222.003906 228.269531 L 230.199219 214.953125 L 230.507812 211.875 L 236.683594 201.269531 L 240.054688 200.03125 L 240.472656 196.25 L 237.773438 195.019531 L 237.148438 191.125 L 239.304688 191.082031 L 240.601562 194.167969 L 243.039062 199.835938 L 242.65625 203.980469 L 246.046875 208.472656 L 237.78125 208.546875 L 236.492188 210.453125 L 243.304688 216.917969 Z M 244.945312 222.238281 "/>
<path style="fill-rule:evenodd;fill:rgb(80%,80%,80%);fill-opacity:1;stroke-width:0.525;stroke-linecap:round;stroke-linejoin:round;stroke:rgb(20%,20%,20%);stroke-opacity:1;stroke-miterlimit:10;" d="M 310.867188 235.839844 L 316.175781 240.226562 L 321.980469 238.058594 L 329.597656 244.578125 L 328.871094 250.25 L 331.96875 251.859375 L 331.1875 253.800781 L 327.609375 257 L 324.578125 259.5 L 323.257812 264.371094 L 322.992188 266.5 L 322.644531 271.507812 L 320.679688 273.125 L 318.769531 277.484375 L 319.542969 278.828125 L 320.597656 282.214844 L 319.992188 291.824219 L 322.207031 300.882812 L 325.980469 304.582031 L 328.113281 309.300781 L 318.871094 310.746094 L 318.359375 312.164062 L 316.792969 315.757812 L 317.449219 322.136719 L 315.914062 327.347656 L 319.628906 332.582031 L 323.867188 331.328125 L 323.855469 338.507812 L 320.390625 338.5625 L 315.820312 333 L 311.953125 332.113281 L 309.429688 328.035156 L 306.765625 330.558594 L 299.351562 328.464844 L 298.949219 325.957031 L 293.472656 326.976562 L 291.722656 324.144531 L 282.1875 326.261719 L 282.605469 321.320312 L 280.074219 317.117188 L 280.546875 310.878906 L 279.691406 304.105469 L 272.722656 304.125 L 273.222656 302.066406 L 267.21875 302.542969 L 266.300781 308.105469 L 256.316406 308.566406 L 249.546875 296.179688 L 232.28125 296.191406 L 226.917969 295.648438 L 228.207031 291.726562 L 231.675781 289.40625 L 233.246094 290.285156 L 238.8125 287.429688 L 241.363281 290.398438 L 249.058594 281.96875 L 249.078125 275.566406 L 252.433594 270.785156 L 257.449219 266.710938 L 259.226562 251.917969 L 262.28125 244.652344 L 261.789062 240.070312 L 268.304688 235.480469 L 273.175781 239.496094 L 283.207031 241.015625 L 285.828125 237.207031 L 288.527344 238.515625 L 299.59375 234.410156 L 305.472656 235.929688 Z M 310.867188 235.839844 "/>
<path style="fill-rule:evenodd;fill:rgb(80%,80%,80%);fill-opacity:1;stroke-width:0.525;stroke-linecap:round;stroke-linejoin:round;stroke:rgb(20%,20%,20%);stroke-opacity:1;stroke-miterlimit:10;" d="M 262.28125 244.652344 L 259.226562 251.917969 L 257.449219 266.710938 L 252.433594 270.785156 L 249.078125 275.566406 L 249.058594 281.96875 L 241.363281 290.398438 L 238.8125 287.429688 L 233.246094 290.285156 L 231.675781 289.40625 L 230.464844 288.121094 L 225.808594 291.53125 L 220.875 285.542969 L 225.449219 282.042969 L 225.210938 277.351562 L 231.082031 276.875 L 234.238281 275.78125 L 237.113281 276.445312 L 239.332031 272.363281 L 239.53125 267.304688 L 235.851562 264.960938 L 239.359375 258.792969 L 237.792969 256.214844 L 232.648438 257.09375 L 232.890625 251.914062 L 238.253906 251.960938 L 248.679688 254.261719 L 248.886719 251.496094 L 250.933594 244.71875 L 255.847656 243.371094 Z M 262.28125 244.652344 "/>
<path style="fill-rule:evenodd;fill:rgb(80%,80%,80%);fill-opacity:1;stroke-width:0.525;stroke-linecap:round;stroke-linejoin:round;stroke:rgb(20%,20%,20%);stroke-opacity:1;stroke-miterlimit:10;" d="M 401.398438 331.574219 L 399.121094 330.792969 L 398.074219 329.433594 L 397.855469 326.8125 L 399.503906 326.65625 L 401.425781 329.90625 Z M 401.398438 331.574219 "/>
<path style="fill-rule:evenodd;fill:rgb(80%,80%,80%);fill-opacity:1;stroke-width:0.525;stroke-linecap:round;stroke-linejoin:round;stroke:rgb(20%,20%,20%);stroke-opacity:1;stroke-miterlimit:10;" d="M 27.898438 175.585938 L 32.117188 176.292969 L 33.675781 178.4375 L 31.019531 180.53125 L 26.882812 179.957031 L 25.777344 177.792969 Z M 27.898438 175.585938 "/>
<path style="fill-rule:evenodd;fill:rgb(80%,80%,80%);fill-opacity:1;stroke-width:0.525;stroke-linecap:round;stroke-linejoin:round;stroke:rgb(20%,20%,20%);stroke-opacity:1;stroke-miterlimit:10;" d="M 397.953125 200.078125 L 396.207031 202.828125 L 389.933594 202.3125 L 389.929688 201.226562 L 393.207031 194.566406 L 397.277344 193.199219 L 398.707031 197.167969 L 395.269531 198.839844 Z M 397.953125 200.078125 "/>
<path style="fill-rule:evenodd;fill:rgb(80%,80%,80%);fill-opacity:1;stroke-width:0.525;stroke-linecap:round;stroke-linejoin:round;stroke:rgb(20%,20%,20%);stroke-opacity:1;stroke-miterlimit:10;" d="M 207.03125 44.445312 L 205.632812 47.816406 L 205.011719 60.019531 L 200.84375 65.046875 L 202.335938 69.585938 L 209.46875 77.019531 L 212.085938 88.890625 L 213.773438 95.871094 L 213.828125 112.230469 L 211.433594 114.632812 L 214.910156 122.308594 L 223.371094 125.882812 L 225.585938 130.398438 L 213.207031 138.320312 L 200.859375 146.144531 L 191.789062 154.332031 L 182.921875 156.296875 L 177.847656 157.234375 L 177.34375 152.484375 L 170.039062 149.917969 L 165.933594 144.792969 L 145.707031 130.5 L 133.035156 121.464844 L 111.753906 107.40625 L 111.753906 104.972656 L 111.757812 98.785156 L 117.617188 94.222656 L 127.886719 92.800781 L 135.511719 87.105469 L 139.519531 85.804688 L 139.441406 79.773438 L 145.746094 76.628906 L 152.726562 76.957031 L 153.839844 74.117188 L 150.386719 69.386719 L 149.859375 59.390625 L 147.363281 57.054688 L 165.371094 47.554688 L 175.78125 45.347656 L 186 44.746094 L 188.472656 46.429688 L 200.3125 43.453125 Z M 207.03125 44.445312 "/>
<path style="fill-rule:evenodd;fill:rgb(80%,80%,80%);fill-opacity:1;stroke-width:0.525;stroke-linecap:round;stroke-linejoin:round;stroke:rgb(20%,20%,20%);stroke-opacity:1;stroke-miterlimit:10;" d="M 348.125 81.929688 L 348.386719 82.589844 L 351.90625 93.585938 L 347.453125 104.199219 L 342.828125 99.472656 L 339.140625 90.632812 L 337.855469 92.890625 L 340.785156 99.332031 L 344.332031 103.210938 L 347.097656 111.566406 L 355.363281 127.632812 L 356.363281 133.910156 L 362.914062 139.496094 L 342.507812 139.496094 L 315.546875 139.5 L 297.308594 139.496094 L 297.308594 95.539062 L 295.695312 89.433594 L 298.242188 79.71875 L 310.324219 81.582031 L 319.613281 85.0625 L 326.96875 80.671875 L 335.542969 80.574219 L 338.644531 82.667969 L 342.242188 83.660156 Z M 348.125 81.929688 "/>
<path style="fill-rule:evenodd;fill:rgb(80%,80%,80%);fill-opacity:1;stroke-width:0.525;stroke-linecap:round;stroke-linejoin:round;stroke:rgb(20%,20%,20%);stroke-opacity:1;stroke-miterlimit:10;" d="M 397.277344 193.199219 L 393.207031 194.566406 L 384.683594 185.277344 L 374.996094 182.253906 L 371.417969 183.507812 L 368.46875 180.875 L 366.667969 185.21875 L 365.175781 183.277344 L 360.945312 184.382812 L 360.378906 179.550781 L 363.246094 173.015625 L 363.558594 168.300781 L 370.222656 165.703125 L 372.382812 162.910156 L 375.878906 173.84375 L 378.539062 178.679688 L 386.464844 182.230469 L 389.332031 186.21875 Z M 397.277344 193.199219 "/>
<path style="fill-rule:evenodd;fill:rgb(80%,80%,80%);fill-opacity:1;stroke-width:0.525;stroke-linecap:round;stroke-linejoin:round;stroke:rgb(20%,20%,20%);stroke-opacity:1;stroke-miterlimit:10;" d="M 393.207031 194.566406 L 389.929688 201.226562 L 389.933594 202.3125 L 396.207031 202.828125 L 394.683594 204.882812 L 398.9375 211.707031 L 402.269531 214.09375 L 418.558594 219.605469 L 424.070312 219.605469 L 415.5 227.941406 L 407.328125 236.722656 L 401.96875 236.488281 L 390.480469 241.886719 L 384.300781 240.1875 L 379.253906 242.496094 L 377.535156 245.046875 L 369.628906 243.902344 L 362.695312 239.371094 L 357.605469 238.339844 L 356.992188 234.523438 L 353.074219 232.785156 L 351.0625 227.160156 L 345.453125 221.496094 L 341.789062 220.695312 L 342.46875 217.335938 L 346.859375 217.105469 L 347.410156 211.476562 L 350.253906 203.496094 L 352.257812 203.554688 L 352.796875 198.484375 L 355.929688 193.949219 L 358.589844 193.269531 L 360.945312 184.382812 L 365.175781 183.277344 L 366.667969 185.21875 L 368.46875 180.875 L 371.417969 183.507812 L 374.996094 182.253906 L 384.683594 185.277344 Z M 393.207031 194.566406 "/>
<path style="fill-rule:evenodd;fill:rgb(80%,80%,80%);fill-opacity:1;stroke-width:0.525;stroke-linecap:round;stroke-linejoin:round;stroke:rgb(20%,20%,20%);stroke-opacity:1;stroke-miterlimit:10;" d="M 232.890625 251.914062 L 232.648438 257.09375 L 237.792969 256.214844 L 239.359375 258.792969 L 235.851562 264.960938 L 239.53125 267.304688 L 239.332031 272.363281 L 237.113281 276.445312 L 234.238281 275.78125 L 231.082031 276.875 L 225.210938 277.351562 L 225.449219 282.042969 L 220.875 285.542969 L 214.195312 278.71875 L 209.386719 270.988281 L 210.960938 260.375 L 213.65625 258.324219 L 222.097656 258.320312 L 222.019531 251.886719 Z M 232.890625 251.914062 "/>
<path style="fill-rule:evenodd;fill:rgb(80%,80%,80%);fill-opacity:1;stroke-width:0.525;stroke-linecap:round;stroke-linejoin:round;stroke:rgb(20%,20%,20%);stroke-opacity:1;stroke-miterlimit:10;" d="M 158.699219 202.0625 L 161.800781 206.839844 L 160.882812 210.796875 L 163.171875 223.347656 L 162.476562 226.078125 L 166.148438 230.136719 L 148.089844 237.6875 L 142.417969 235.726562 L 142.441406 235.636719 L 143.9375 235.40625 L 141.628906 227.273438 L 145.796875 218.421875 L 144.789062 211.285156 L 144.453125 202.898438 L 155.777344 202.851562 Z M 158.699219 202.0625 "/>
<path style="fill-rule:evenodd;fill:rgb(80%,80%,80%);fill-opacity:1;stroke-width:0.525;stroke-linecap:round;stroke-linejoin:round;stroke:rgb(20%,20%,20%);stroke-opacity:1;stroke-miterlimit:10;" d="M 96.839844 194.917969 L 101.742188 196.949219 L 108.429688 195.328125 L 110.847656 199.121094 L 113.449219 200.753906 L 115.574219 207.519531 L 116.261719 211.726562 L 114.257812 222.121094 L 112.84375 222.046875 L 109.316406 224.089844 L 107.253906 217.675781 L 102.9375 216.886719 L 97.480469 208.449219 L 90.667969 209.207031 L 86.296875 213.78125 L 84.683594 209.6875 L 76.820312 203.003906 L 78.660156 199.949219 L 83.933594 198.828125 L 83.625 197.042969 L 82.421875 195.972656 L 83.78125 195.007812 L 83.945312 193.394531 L 91.480469 195.472656 Z M 96.839844 194.917969 "/>
<path style="fill-rule:evenodd;fill:rgb(80%,80%,80%);fill-opacity:1;stroke-width:0.525;stroke-linecap:round;stroke-linejoin:round;stroke:rgb(20%,20%,20%);stroke-opacity:1;stroke-miterlimit:10;" d="M 67.269531 191.179688 L 68.328125 188.226562 L 76.394531 186.902344 L 81.125 188.246094 L 82.632812 189.234375 L 80.761719 189.820312 L 76.175781 188.207031 L 73.324219 188.886719 L 70.886719 190.808594 Z M 67.269531 191.179688 "/>
<path style="fill-rule:evenodd;fill:rgb(80%,80%,80%);fill-opacity:1;stroke-width:0.525;stroke-linecap:round;stroke-linejoin:round;stroke:rgb(20%,20%,20%);stroke-opacity:1;stroke-miterlimit:10;" d="M 76.820312 203.003906 L 73.894531 198.699219 L 67.40625 195.320312 L 75.859375 193.359375 L 83.945312 193.394531 L 83.78125 195.007812 L 82.421875 195.972656 L 83.625 197.042969 L 83.933594 198.828125 L 78.660156 199.949219 Z M 76.820312 203.003906 "/>
<path style="fill-rule:evenodd;fill:rgb(80%,80%,80%);fill-opacity:1;stroke-width:0.525;stroke-linecap:round;stroke-linejoin:round;stroke:rgb(20%,20%,20%);stroke-opacity:1;stroke-miterlimit:10;" d="M 222.019531 251.886719 L 222.097656 258.320312 L 213.65625 258.324219 L 211.132812 257.3125 L 213.628906 250.914062 Z M 222.019531 251.886719 "/>
<path style="fill-rule:evenodd;fill:rgb(80%,80%,80%);fill-opacity:1;stroke-width:0.525;stroke-linecap:round;stroke-linejoin:round;stroke:rgb(20%,20%,20%);stroke-opacity:1;stroke-miterlimit:10;" d="M 207.65625 242.863281 L 209.519531 243.25 L 207.546875 246.648438 L 205 245.5625 Z M 207.65625 242.863281 "/>
<path style="fill-rule:evenodd;fill:rgb(80%,80%,80%);fill-opacity:1;stroke-width:0.525;stroke-linecap:round;stroke-linejoin:round;stroke:rgb(20%,20%,20%);stroke-opacity:1;stroke-miterlimit:10;" d="M 357.605469 238.339844 L 362.695312 239.371094 L 369.628906 243.902344 L 377.535156 245.046875 L 379.253906 242.496094 L 384.300781 240.1875 L 390.480469 241.886719 L 385.414062 248.308594 L 385.492188 268.628906 L 388.550781 273.179688 L 381.054688 279.058594 L 377.554688 288.273438 L 375.628906 289.636719 L 366.855469 283.203125 L 367.109375 280.625 L 347.429688 269.628906 L 348.414062 265.285156 L 346.996094 262.472656 L 352.414062 254.589844 L 352.109375 250.167969 L 346.894531 240.546875 L 354.800781 236.0625 Z M 357.605469 238.339844 "/>
<path style="fill-rule:evenodd;fill:rgb(80%,80%,80%);fill-opacity:1;stroke-width:0.525;stroke-linecap:round;stroke-linejoin:round;stroke:rgb(20%,20%,20%);stroke-opacity:1;stroke-miterlimit:10;" d="M 112.84375 222.046875 L 112.109375 227.960938 L 118.570312 231.546875 L 118.050781 239.8125 L 108.46875 235.425781 L 102.3125 229.714844 L 96.359375 225.59375 L 101.101562 220.871094 L 102.9375 216.886719 L 107.253906 217.675781 L 109.316406 224.089844 Z M 112.84375 222.046875 "/>
<path style="fill-rule:evenodd;fill:rgb(80%,80%,80%);fill-opacity:1;stroke-width:0.525;stroke-linecap:round;stroke-linejoin:round;stroke:rgb(20%,20%,20%);stroke-opacity:1;stroke-miterlimit:10;" d="M 298.242188 79.71875 L 295.695312 89.433594 L 297.308594 95.539062 L 297.308594 139.496094 L 297.304688 151.265625 L 291.796875 151.304688 L 291.796875 154.230469 L 278.863281 147.429688 L 265.246094 140.214844 L 247.722656 130.835938 L 242.183594 133.53125 L 238.058594 135.789062 L 233.925781 132.425781 L 225.585938 130.398438 L 223.371094 125.882812 L 214.910156 122.308594 L 211.433594 114.632812 L 213.828125 112.230469 L 213.773438 95.871094 L 212.085938 88.890625 L 216.222656 84.496094 L 215.328125 81.300781 L 223.355469 74.453125 L 223.027344 69.761719 L 227.675781 72.050781 L 233.207031 71.582031 L 243.371094 74.949219 L 248.050781 82.179688 L 255.332031 83.394531 L 264.652344 88.652344 L 268.46875 87.089844 L 270.660156 82.558594 L 269.414062 79.320312 L 272.953125 73.851562 L 278.71875 71.40625 L 286.863281 73.273438 L 286.914062 75.382812 L 297.3125 77.695312 Z M 298.242188 79.71875 "/>
<path style="fill-rule:evenodd;fill:rgb(80%,80%,80%);fill-opacity:1;stroke-width:0.525;stroke-linecap:round;stroke-linejoin:round;stroke:rgb(20%,20%,20%);stroke-opacity:1;stroke-miterlimit:10;" d="M 318.128906 429.085938 L 321.863281 433.132812 L 320.289062 436.738281 L 312.535156 441.136719 L 308.519531 434.925781 L 312.554688 430.394531 Z M 318.128906 429.085938 "/>
<path style="fill-rule:evenodd;fill:rgb(80%,80%,80%);fill-opacity:1;stroke-width:0.525;stroke-linecap:round;stroke-linejoin:round;stroke:rgb(20%,20%,20%);stroke-opacity:1;stroke-miterlimit:10;" d="M 147.363281 57.054688 L 149.859375 59.390625 L 150.386719 69.386719 L 153.839844 74.117188 L 152.726562 76.957031 L 145.746094 76.628906 L 139.441406 79.773438 L 139.519531 85.804688 L 135.511719 87.105469 L 127.886719 92.800781 L 117.617188 94.222656 L 111.757812 98.785156 L 111.753906 104.972656 L 88.097656 103.410156 L 96.304688 100.828125 L 101.332031 96.648438 L 106.394531 89.445312 L 105.335938 81.261719 L 108.574219 73.625 L 112.601562 69.082031 L 122.011719 63.976562 L 127.050781 52.15625 L 130.019531 51.558594 L 135.496094 56.527344 L 143.367188 55.324219 L 143.558594 55.683594 Z M 147.363281 57.054688 "/>
<path style="fill-rule:evenodd;fill:rgb(80%,80%,80%);fill-opacity:1;stroke-width:0.525;stroke-linecap:round;stroke-linejoin:round;stroke:rgb(20%,20%,20%);stroke-opacity:1;stroke-miterlimit:10;" d="M 431.636719 330.96875 L 434.890625 336.296875 L 437.875 350 L 436.480469 353.019531 L 433.21875 350.578125 L 434.378906 356.359375 L 432.441406 363.539062 L 423.640625 391.050781 L 419.371094 405.820312 L 408.402344 409.78125 L 402.296875 406.210938 L 400.523438 402.617188 L 400.804688 396.875 L 397.871094 389.574219 L 399.425781 384.089844 L 404.78125 375.863281 L 401.824219 361.566406 L 406.847656 354.480469 L 414.371094 351.507812 L 418.515625 348.601562 L 428.304688 338.433594 L 429.613281 332.339844 Z M 431.636719 330.96875 "/>
<path style="fill-rule:evenodd;fill:rgb(80%,80%,80%);fill-opacity:1;stroke-width:0.525;stroke-linecap:round;stroke-linejoin:round;stroke:rgb(20%,20%,20%);stroke-opacity:1;stroke-miterlimit:10;" d="M 182.921875 156.296875 L 182.675781 172.078125 L 178.945312 178.164062 L 166.953125 178.566406 L 160.816406 180.695312 L 155.464844 179.789062 L 148.460938 184.75 L 143.953125 185.636719 L 141.308594 188.617188 L 137.722656 188.886719 L 134.476562 196.351562 L 130.496094 198.117188 L 129.171875 206.042969 L 126.453125 207.363281 L 125.1875 204.386719 L 121.253906 207.386719 L 115.574219 207.519531 L 113.449219 200.753906 L 110.847656 199.121094 L 108.429688 195.328125 L 101.742188 196.949219 L 96.839844 194.917969 L 95.601562 189.507812 L 92.015625 181.46875 L 94.976562 177.09375 L 99.449219 179.601562 L 100.433594 177.773438 L 108.082031 177.355469 L 129.238281 177.363281 L 126.742188 153.5 L 125.332031 140.523438 L 123.273438 121.472656 L 133.035156 121.464844 L 145.707031 130.5 L 165.933594 144.792969 L 170.039062 149.917969 L 177.34375 152.484375 L 177.847656 157.234375 Z M 182.921875 156.296875 "/>
<path style="fill-rule:evenodd;fill:rgb(80%,80%,80%);fill-opacity:1;stroke-width:0.525;stroke-linecap:round;stroke-linejoin:round;stroke:rgb(20%,20%,20%);stroke-opacity:1;stroke-miterlimit:10;" d="M 340.917969 417.53125 L 336.625 417.496094 L 335.714844 412.070312 L 335.921875 402.71875 L 332.074219 390.550781 L 338.246094 383.976562 L 338.824219 379.691406 L 341.546875 376.5625 L 340.203125 373.238281 L 341.699219 366.648438 L 341.332031 357.101562 L 331.917969 353.320312 L 327.191406 353.195312 L 327.15625 351.101562 L 326.152344 347.359375 L 342.625 341.851562 L 345.0625 345.195312 L 348.914062 343.976562 L 350.15625 349.015625 L 348.304688 352.554688 L 354.140625 359.679688 L 354.378906 356.757812 L 356.917969 353.214844 L 357.234375 345.570312 L 351.746094 339.015625 L 350.847656 331.519531 L 352.335938 328.058594 L 357.085938 327.15625 L 359.144531 328.777344 L 365.914062 328.898438 L 368.378906 326.628906 L 371.78125 327.15625 L 382.5 321.886719 L 383.0625 339.710938 L 384.734375 344.414062 L 383.335938 350.195312 L 379.296875 355.652344 L 364.03125 363.957031 L 360.6875 368.0625 L 351.117188 375.730469 L 355.519531 390.625 L 353.117188 403.777344 L 340.804688 409.535156 L 338.84375 412.019531 Z M 340.917969 417.53125 "/>
<path style="fill-rule:evenodd;fill:rgb(80%,80%,80%);fill-opacity:1;stroke-width:0.525;stroke-linecap:round;stroke-linejoin:round;stroke:rgb(20%,20%,20%);stroke-opacity:1;stroke-miterlimit:10;" d="M 92.015625 181.46875 L 80.554688 170.808594 L 70.542969 171.664062 L 68.433594 175.5625 L 71.179688 164.84375 L 70.269531 157.246094 L 68.546875 154.8125 L 70.347656 150.015625 L 65.871094 144.238281 L 66.136719 143.425781 L 87.875 143.421875 L 87.875 133.394531 L 93.289062 130.835938 L 93.386719 115.359375 L 111.765625 115.25 L 111.753906 107.40625 L 133.035156 121.464844 L 123.273438 121.472656 L 125.332031 140.523438 L 126.742188 153.5 L 129.238281 177.363281 L 108.082031 177.355469 L 100.433594 177.773438 L 99.449219 179.601562 L 94.976562 177.09375 Z M 92.015625 181.46875 "/>
<path style="fill-rule:evenodd;fill:rgb(80%,80%,80%);fill-opacity:1;stroke-width:0.525;stroke-linecap:round;stroke-linejoin:round;stroke:rgb(20%,20%,20%);stroke-opacity:1;stroke-miterlimit:10;" d="M 477.730469 376.9375 L 478.222656 378.046875 L 477.5 379.191406 L 475.800781 379.074219 L 475.480469 377.890625 L 476.417969 377.019531 Z M 477.730469 376.9375 "/>
<path style="fill-rule:evenodd;fill:rgb(80%,80%,80%);fill-opacity:1;stroke-width:0.525;stroke-linecap:round;stroke-linejoin:round;stroke:rgb(20%,20%,20%);stroke-opacity:1;stroke-miterlimit:10;" d="M 346.535156 317.652344 L 348.511719 321.695312 L 348.757812 328.726562 L 347.183594 331.519531 L 348.8125 338.347656 L 350.269531 339.355469 L 351.746094 339.015625 L 357.234375 345.570312 L 356.917969 353.214844 L 354.378906 356.757812 L 354.140625 359.679688 L 348.304688 352.554688 L 350.15625 349.015625 L 348.914062 343.976562 L 345.0625 345.195312 L 342.625 341.851562 L 340.449219 340.066406 L 342.902344 331.246094 L 343.265625 323.8125 L 345.222656 322.460938 L 341.070312 315.917969 Z M 346.535156 317.652344 "/>
<path style="fill-rule:evenodd;fill:rgb(80%,80%,80%);fill-opacity:1;stroke-width:0.525;stroke-linecap:round;stroke-linejoin:round;stroke:rgb(20%,20%,20%);stroke-opacity:1;stroke-miterlimit:10;" d="M 288.492188 362.636719 L 293.113281 361.703125 L 298.84375 363.523438 L 292.910156 364.886719 L 289.652344 367.492188 L 288.105469 364.773438 L 275.226562 366.566406 L 275.210938 388.1875 L 269.734375 388.1875 L 269.75 404.714844 L 269.75 427.339844 L 264.789062 430.714844 L 255.542969 429.109375 L 252.726562 425.214844 L 250.488281 428.285156 L 243.921875 420.480469 L 239.390625 401.121094 L 238.910156 389.828125 L 233.402344 381.175781 L 232.121094 377.28125 L 224.925781 365.546875 L 224.46875 360.394531 L 232.183594 358.652344 L 236.464844 361.292969 L 261.328125 361.183594 L 263.027344 363.253906 L 274.296875 364.898438 Z M 288.492188 362.636719 "/>
<path style="fill-rule:evenodd;fill:rgb(80%,80%,80%);fill-opacity:1;stroke-width:0.525;stroke-linecap:round;stroke-linejoin:round;stroke:rgb(20%,20%,20%);stroke-opacity:1;stroke-miterlimit:10;" d="M 242.183594 133.53125 L 243.285156 142.394531 L 247.550781 149.078125 L 246.347656 151.84375 L 244.785156 169.429688 L 238.8125 175.902344 L 233.746094 183.71875 L 234.59375 187.550781 L 228.363281 191.1875 L 218.453125 189.425781 L 212.753906 192.550781 L 207.453125 191.980469 L 202.363281 189.695312 L 197.683594 191.511719 L 194.71875 188 L 190.230469 186.597656 L 182.355469 188.871094 L 179.707031 194.214844 L 179.4375 198.910156 L 176.765625 196.355469 L 173.957031 195.890625 L 172.789062 197.777344 L 171.238281 193.214844 L 164.96875 191.167969 L 160.457031 182.769531 L 160.816406 180.695312 L 166.953125 178.566406 L 178.945312 178.164062 L 182.675781 172.078125 L 182.921875 156.296875 L 191.789062 154.332031 L 200.859375 146.144531 L 213.207031 138.320312 L 225.585938 130.398438 L 233.925781 132.425781 L 238.058594 135.789062 Z M 242.183594 133.53125 "/>
<path style="fill-rule:evenodd;fill:rgb(80%,80%,80%);fill-opacity:1;stroke-width:0.525;stroke-linecap:round;stroke-linejoin:round;stroke:rgb(20%,20%,20%);stroke-opacity:1;stroke-miterlimit:10;" d="M 237.148438 191.125 L 237.773438 195.019531 L 240.472656 196.25 L 240.054688 200.03125 L 236.683594 201.269531 L 230.507812 211.875 L 230.199219 214.953125 L 222.003906 228.269531 L 218.054688 224.824219 L 215.390625 225.179688 L 208.425781 231.539062 L 206.984375 237.253906 L 205.246094 238.738281 L 199.917969 238.402344 L 193.726562 240.207031 L 190.453125 238.242188 L 186.542969 230.660156 L 183.894531 228.707031 L 174.515625 228.652344 L 174.621094 215.285156 L 180.765625 205.066406 L 179.4375 198.910156 L 179.707031 194.214844 L 182.355469 188.871094 L 190.230469 186.597656 L 194.71875 188 L 197.683594 191.511719 L 202.363281 189.695312 L 207.453125 191.980469 L 212.753906 192.550781 L 218.453125 189.425781 L 228.363281 191.1875 L 234.59375 187.550781 Z M 237.148438 191.125 "/>
<path style="fill-rule:evenodd;fill:rgb(80%,80%,80%);fill-opacity:1;stroke-width:0.525;stroke-linecap:round;stroke-linejoin:round;stroke:rgb(20%,20%,20%);stroke-opacity:1;stroke-miterlimit:10;" d="M 327.570312 269.707031 L 329.550781 272.613281 L 328.027344 277.0625 L 324.59375 276.601562 L 323.304688 279.3125 L 319.542969 278.828125 L 318.769531 277.484375 L 320.679688 273.125 L 322.644531 271.507812 Z M 327.570312 269.707031 "/>
<path style="fill-rule:evenodd;fill:rgb(80%,80%,80%);fill-opacity:1;stroke-width:0.525;stroke-linecap:round;stroke-linejoin:round;stroke:rgb(20%,20%,20%);stroke-opacity:1;stroke-miterlimit:10;" d="M 111.753906 104.972656 L 111.753906 107.40625 L 111.765625 115.25 L 93.386719 115.359375 L 93.289062 130.835938 L 87.875 133.394531 L 87.875 143.421875 L 66.136719 143.425781 L 67.113281 140.894531 L 71.746094 129.039062 L 79.664062 114.6875 L 84.675781 111.074219 L 88.097656 103.410156 Z M 111.753906 104.972656 "/>
<path style="fill-rule:evenodd;fill:rgb(80%,80%,80%);fill-opacity:1;stroke-width:0.525;stroke-linecap:round;stroke-linejoin:round;stroke:rgb(20%,20%,20%);stroke-opacity:1;stroke-miterlimit:10;" d="M 362.914062 139.496094 L 364.179688 143.75 L 365.394531 156.195312 L 366.59375 158.816406 L 372.382812 162.910156 L 370.222656 165.703125 L 363.558594 168.300781 L 363.246094 173.015625 L 360.378906 179.550781 L 360.945312 184.382812 L 358.589844 193.269531 L 355.929688 193.949219 L 352.796875 198.484375 L 352.257812 203.554688 L 350.253906 203.496094 L 347.410156 211.476562 L 346.480469 207.351562 L 342.511719 203.699219 L 342.660156 196.007812 L 336.449219 197.195312 L 338.277344 202.535156 L 331.777344 209.585938 L 329.101562 209.902344 L 325.042969 206.910156 L 318.597656 212.203125 L 313.371094 210.6875 L 305.992188 211.109375 L 302.058594 206.085938 L 297.875 206.785156 L 294.976562 214.644531 L 292.839844 215.746094 L 289.046875 215.222656 L 289.828125 208.941406 L 285.621094 203.273438 L 285.917969 200.59375 L 280.519531 191.214844 L 283.804688 185.183594 L 286.910156 176.160156 L 291.8125 176.066406 L 291.796875 154.230469 L 291.796875 151.304688 L 297.304688 151.265625 L 297.308594 139.496094 L 315.546875 139.5 L 342.507812 139.496094 Z M 362.914062 139.496094 "/>
<path style="fill-rule:evenodd;fill:rgb(80%,80%,80%);fill-opacity:1;stroke-width:0.525;stroke-linecap:round;stroke-linejoin:round;stroke:rgb(20%,20%,20%);stroke-opacity:1;stroke-miterlimit:10;" d="M 92.015625 181.46875 L 95.601562 189.507812 L 96.839844 194.917969 L 91.480469 195.472656 L 83.945312 193.394531 L 75.859375 193.359375 L 67.40625 195.320312 L 67.269531 191.179688 L 70.886719 190.808594 L 73.324219 188.886719 L 76.175781 188.207031 L 80.761719 189.820312 L 82.632812 189.234375 L 81.125 188.246094 L 76.394531 186.902344 L 68.328125 188.226562 L 64.929688 182.164062 L 68.433594 175.5625 L 70.542969 171.664062 L 80.554688 170.808594 Z M 92.015625 181.46875 "/>
<path style="fill-rule:evenodd;fill:rgb(80%,80%,80%);fill-opacity:1;stroke-width:0.525;stroke-linecap:round;stroke-linejoin:round;stroke:rgb(20%,20%,20%);stroke-opacity:1;stroke-miterlimit:10;" d="M 102.9375 216.886719 L 101.101562 220.871094 L 96.359375 225.59375 L 90.679688 222.980469 L 87.089844 218.632812 L 86.296875 213.78125 L 90.667969 209.207031 L 97.480469 208.449219 Z M 102.9375 216.886719 "/>
<path style="fill-rule:evenodd;fill:rgb(80%,80%,80%);fill-opacity:1;stroke-width:0.525;stroke-linecap:round;stroke-linejoin:round;stroke:rgb(20%,20%,20%);stroke-opacity:1;stroke-miterlimit:10;" d="M 396.207031 202.828125 L 397.953125 200.078125 L 403.652344 205.867188 L 407.441406 206.097656 L 411.804688 203.539062 L 415.628906 204.542969 L 420.695312 201.847656 L 429.363281 201.421875 L 436.6875 199.507812 L 439.609375 197.257812 L 442.335938 198.136719 L 441.691406 205.273438 L 439.84375 211.46875 L 434.339844 219.796875 L 429.898438 229.894531 L 423.902344 239.234375 L 413.3125 250.382812 L 405.171875 255.234375 L 399.203125 260.40625 L 391.5625 268.582031 L 388.550781 273.179688 L 385.492188 268.628906 L 385.414062 248.308594 L 390.480469 241.886719 L 401.96875 236.488281 L 407.328125 236.722656 L 415.5 227.941406 L 424.070312 219.605469 L 418.558594 219.605469 L 402.269531 214.09375 L 398.9375 211.707031 L 394.683594 204.882812 Z M 396.207031 202.828125 "/>
<path style="fill-rule:evenodd;fill:rgb(80%,80%,80%);fill-opacity:1;stroke-width:0.525;stroke-linecap:round;stroke-linejoin:round;stroke:rgb(20%,20%,20%);stroke-opacity:1;stroke-miterlimit:10;" d="M 347.410156 211.476562 L 346.859375 217.105469 L 342.46875 217.335938 L 341.789062 220.695312 L 345.453125 221.496094 L 351.0625 227.160156 L 353.074219 232.785156 L 356.992188 234.523438 L 357.605469 238.339844 L 354.800781 236.0625 L 346.894531 240.546875 L 344.441406 243.007812 L 336.957031 244.40625 L 334.789062 242.777344 L 329.597656 244.578125 L 321.980469 238.058594 L 316.175781 240.226562 L 310.867188 235.839844 L 309.117188 231.976562 L 305.574219 230.113281 L 305.007812 227.070312 L 299.394531 223.28125 L 292.839844 215.746094 L 294.976562 214.644531 L 297.875 206.785156 L 302.058594 206.085938 L 305.992188 211.109375 L 313.371094 210.6875 L 318.597656 212.203125 L 325.042969 206.910156 L 329.101562 209.902344 L 331.777344 209.585938 L 338.277344 202.535156 L 336.449219 197.195312 L 342.660156 196.007812 L 342.511719 203.699219 L 346.480469 207.351562 Z M 347.410156 211.476562 "/>
<path style="fill-rule:evenodd;fill:rgb(80%,80%,80%);fill-opacity:1;stroke-width:0.525;stroke-linecap:round;stroke-linejoin:round;stroke:rgb(20%,20%,20%);stroke-opacity:1;stroke-miterlimit:10;" d="M 196.460938 263.433594 L 195.386719 263.179688 L 194.871094 262.277344 L 195.171875 261.335938 L 196.320312 260.914062 L 197.707031 261.222656 L 197.9375 262.226562 L 197.398438 262.972656 Z M 196.460938 263.433594 "/>
<path style="fill-rule:evenodd;fill:rgb(80%,80%,80%);fill-opacity:1;stroke-width:0.525;stroke-linecap:round;stroke-linejoin:round;stroke:rgb(20%,20%,20%);stroke-opacity:1;stroke-miterlimit:10;" d="M 335.714844 412.070312 L 336.625 417.496094 L 335.820312 420.445312 L 331.347656 419.757812 L 329.019531 416.6875 L 329.382812 413.378906 L 332.835938 410.753906 Z M 335.714844 412.070312 "/>
<path style="fill-rule:evenodd;fill:rgb(80%,80%,80%);fill-opacity:1;stroke-width:0.525;stroke-linecap:round;stroke-linejoin:round;stroke:rgb(20%,20%,20%);stroke-opacity:1;stroke-miterlimit:10;" d="M 465.453125 288.789062 L 466.242188 289.488281 L 466.53125 291.433594 L 465.523438 291.027344 L 464.703125 289.730469 Z M 465.453125 288.789062 "/>
<path style="fill-rule:evenodd;fill:rgb(80%,80%,80%);fill-opacity:1;stroke-width:0.525;stroke-linecap:round;stroke-linejoin:round;stroke:rgb(20%,20%,20%);stroke-opacity:1;stroke-miterlimit:10;" d="M 291.796875 154.230469 L 291.8125 176.066406 L 286.910156 176.160156 L 283.804688 185.183594 L 280.519531 191.214844 L 285.917969 200.59375 L 285.621094 203.273438 L 283.414062 202.816406 L 272.25 213.242188 L 264.894531 213.929688 L 262.078125 219.320312 L 257.0625 219.671875 L 252.042969 222.089844 L 250.828125 220.3125 L 244.945312 222.238281 L 243.304688 216.917969 L 236.492188 210.453125 L 237.78125 208.546875 L 246.046875 208.472656 L 242.65625 203.980469 L 243.039062 199.835938 L 240.601562 194.167969 L 239.304688 191.082031 L 237.148438 191.125 L 234.59375 187.550781 L 233.746094 183.71875 L 238.8125 175.902344 L 244.785156 169.429688 L 246.347656 151.84375 L 247.550781 149.078125 L 243.285156 142.394531 L 242.183594 133.53125 L 247.722656 130.835938 L 265.246094 140.214844 L 278.863281 147.429688 Z M 291.796875 154.230469 "/>
<path style="fill-rule:evenodd;fill:rgb(80%,80%,80%);fill-opacity:1;stroke-width:0.525;stroke-linecap:round;stroke-linejoin:round;stroke:rgb(20%,20%,20%);stroke-opacity:1;stroke-miterlimit:10;" d="M 164.582031 202.859375 L 163.851562 206.371094 L 166.949219 208.445312 L 168.4375 213.738281 L 168.539062 229.507812 L 166.148438 230.136719 L 162.476562 226.078125 L 163.171875 223.347656 L 160.882812 210.796875 L 161.800781 206.839844 L 158.699219 202.0625 Z M 164.582031 202.859375 "/>
<path style="fill-rule:evenodd;fill:rgb(80%,80%,80%);fill-opacity:1;stroke-width:0.525;stroke-linecap:round;stroke-linejoin:round;stroke:rgb(20%,20%,20%);stroke-opacity:1;stroke-miterlimit:10;" d="M 223.027344 69.761719 L 223.355469 74.453125 L 215.328125 81.300781 L 216.222656 84.496094 L 212.085938 88.890625 L 209.46875 77.019531 L 202.335938 69.585938 L 200.84375 65.046875 L 205.011719 60.019531 L 205.632812 47.816406 L 207.03125 44.445312 L 214.355469 41.566406 L 221.933594 44.03125 L 220.160156 50.476562 L 221.132812 56.046875 L 215.429688 62.171875 L 216.554688 66.316406 Z M 223.027344 69.761719 "/>
<path style="fill-rule:evenodd;fill:rgb(80%,80%,80%);fill-opacity:1;stroke-width:0.525;stroke-linecap:round;stroke-linejoin:round;stroke:rgb(20%,20%,20%);stroke-opacity:1;stroke-miterlimit:10;" d="M 334.796875 269.351562 L 333.851562 275.066406 L 335.039062 278.699219 L 342.726562 277.710938 L 347.429688 269.628906 L 367.109375 280.625 L 366.855469 283.203125 L 375.628906 289.636719 L 373.355469 297.128906 L 377.140625 301.714844 L 376.121094 309.789062 L 378.785156 319.132812 L 382.5 321.886719 L 371.78125 327.15625 L 368.378906 326.628906 L 365.914062 328.898438 L 359.144531 328.777344 L 357.085938 327.15625 L 352.335938 328.058594 L 352.074219 327.1875 L 351.949219 327.058594 L 351.105469 326.34375 L 350.988281 326.152344 L 348.605469 317.597656 L 348.070312 317.027344 L 347.511719 316.554688 L 347.453125 316.488281 L 346.535156 317.652344 L 341.070312 315.917969 L 331.402344 311.347656 L 328.1875 305.328125 L 328.082031 302.265625 L 323.59375 298.464844 L 324.675781 296.503906 L 323.066406 288.382812 L 324.988281 287.394531 L 329.523438 280.253906 L 328.027344 277.0625 L 329.550781 272.613281 L 327.570312 269.707031 Z M 334.796875 269.351562 "/>
<path style="fill-rule:evenodd;fill:rgb(80%,80%,80%);fill-opacity:1;stroke-width:0.525;stroke-linecap:round;stroke-linejoin:round;stroke:rgb(20%,20%,20%);stroke-opacity:1;stroke-miterlimit:10;" d="M 346.996094 262.472656 L 343 261.699219 L 335.554688 264.566406 L 334.796875 269.351562 L 327.570312 269.707031 L 322.644531 271.507812 L 322.992188 266.5 L 323.257812 264.371094 L 324.578125 259.5 L 327.609375 257 L 331.1875 253.800781 L 331.96875 251.859375 L 328.871094 250.25 L 329.597656 244.578125 L 334.789062 242.777344 L 336.957031 244.40625 L 344.441406 243.007812 L 346.894531 240.546875 L 352.109375 250.167969 L 352.414062 254.589844 Z M 346.996094 262.472656 "/>
<path style="fill-rule:evenodd;fill:rgb(80%,80%,80%);fill-opacity:1;stroke-width:0.525;stroke-linecap:round;stroke-linejoin:round;stroke:rgb(20%,20%,20%);stroke-opacity:1;stroke-miterlimit:10;" d="M 332.074219 390.550781 L 335.921875 402.71875 L 335.714844 412.070312 L 332.835938 410.753906 L 329.382812 413.378906 L 329.019531 416.6875 L 331.347656 419.757812 L 335.820312 420.445312 L 336.625 417.496094 L 340.917969 417.53125 L 338.085938 428.160156 L 331.511719 434.511719 L 327.132812 442.71875 L 316.972656 453.832031 L 308.992188 460.164062 L 301.15625 461.953125 L 296.628906 464.554688 L 283.984375 463.292969 L 274.886719 465.714844 L 269.597656 468.714844 L 261.523438 462.402344 L 257.96875 455.484375 L 260.332031 454.390625 L 259.78125 447.980469 L 254.871094 439.519531 L 250.488281 428.285156 L 252.726562 425.214844 L 255.542969 429.109375 L 264.789062 430.714844 L 269.75 427.339844 L 269.75 404.714844 L 274.492188 413.132812 L 273.660156 417.816406 L 279.152344 417.589844 L 284.839844 412.230469 L 286.425781 408.109375 L 296.300781 411.277344 L 300.648438 409.996094 L 302.199219 404.6875 L 307.605469 401.660156 L 308.457031 398.027344 L 315.8125 391.667969 L 321.390625 389.292969 Z M 318.128906 429.085938 L 312.554688 430.394531 L 308.519531 434.925781 L 312.535156 441.136719 L 320.289062 436.738281 L 321.863281 433.132812 Z M 318.128906 429.085938 "/>
<path style="fill-rule:evenodd;fill:rgb(80%,80%,80%);fill-opacity:1;stroke-width:0.525;stroke-linecap:round;stroke-linejoin:round;stroke:rgb(20%,20%,20%);stroke-opacity:1;stroke-miterlimit:10;" d="M 331.402344 311.347656 L 341.070312 315.917969 L 345.222656 322.460938 L 343.265625 323.8125 L 342.902344 331.246094 L 340.449219 340.066406 L 342.625 341.851562 L 326.152344 347.359375 L 327.15625 351.101562 L 321.703125 351.550781 L 318.144531 356.242188 L 313.472656 358.152344 L 308.558594 364.472656 L 298.84375 363.523438 L 293.113281 361.703125 L 288.492188 362.636719 L 281.472656 356.308594 L 280.785156 354.140625 L 280.765625 336.113281 L 291.902344 336.113281 L 291.722656 324.144531 L 293.472656 326.976562 L 298.949219 325.957031 L 299.351562 328.464844 L 306.765625 330.558594 L 309.429688 328.035156 L 311.953125 332.113281 L 315.820312 333 L 320.390625 338.5625 L 323.855469 338.507812 L 323.867188 331.328125 L 319.628906 332.582031 L 315.914062 327.347656 L 317.449219 322.136719 L 316.792969 315.757812 L 318.359375 312.164062 L 318.871094 310.746094 L 328.113281 309.300781 Z M 331.402344 311.347656 "/>
<path style="fill-rule:evenodd;fill:rgb(80%,80%,80%);fill-opacity:1;stroke-width:0.525;stroke-linecap:round;stroke-linejoin:round;stroke:rgb(20%,20%,20%);stroke-opacity:1;stroke-miterlimit:10;" d="M 327.15625 351.101562 L 327.191406 353.195312 L 331.917969 353.320312 L 341.332031 357.101562 L 341.699219 366.648438 L 340.203125 373.238281 L 341.546875 376.5625 L 338.824219 379.691406 L 338.246094 383.976562 L 332.074219 390.550781 L 321.390625 389.292969 L 319.671875 386.984375 L 314.128906 385.679688 L 312.285156 379.367188 L 303.640625 373.453125 L 298.84375 363.523438 L 308.558594 364.472656 L 313.472656 358.152344 L 318.144531 356.242188 L 321.703125 351.550781 Z M 327.15625 351.101562 "/>
</g>
</svg>
