<?xml version="1.0" encoding="UTF-8"?>
<svg xmlns="http://www.w3.org/2000/svg" xmlns:xlink="http://www.w3.org/1999/xlink" width="504pt" height="504pt" viewBox="0 0 504 504" version="1.1">
<defs>
<clipPath id="clip1">
  <path d="M 59.039062 59.039062 L 473.757812 59.039062 L 473.757812 430.558594 L 59.039062 430.558594 Z M 59.039062 59.039062 "/>
</clipPath>
</defs>
<g id="surface201">
<rect x="0" y="0" width="504" height="504" style="fill:rgb(100%,100%,100%);fill-opacity:1;stroke:none;"/>
<g clip-path="url(#clip1)" clip-rule="nonzero">
<path style="fill-rule:nonzero;fill:rgb(100%,100%,100%);fill-opacity:1;stroke-width:0.75;stroke-linecap:round;stroke-linejoin:round;stroke:rgb(100%,100%,100%);stroke-opacity:1;stroke-miterlimit:10;" d="M 59.039062 430.558594 L 473.757812 430.558594 L 473.757812 59.039062 L 59.039062 59.039062 Z M 59.039062 430.558594 "/>
</g>
<path style="fill:none;stroke-width:0.75;stroke-linecap:round;stroke-linejoin:round;stroke:rgb(0%,0%,0%);stroke-opacity:1;stroke-miterlimit:10;" d="M 298.390625 300.371094 L 298.535156 310.011719 L 289.566406 310.011719 L 289.582031 324.527344 L 290.136719 326.277344 L 295.789062 331.371094 L 284.355469 333.191406 L 275.28125 331.867188 L 273.914062 330.203125 L 253.890625 330.289062 L 250.441406 328.164062 L 244.226562 329.566406 L 244.164062 322.835938 L 246.476562 318.007812 L 247.542969 312.019531 L 252.542969 306.585938 L 253.046875 299.328125 L 249.6875 292.335938 L 251.34375 288.875 L 248.945312 282.519531 L 246.484375 278.992188 L 250.519531 277.859375 L 264.421875 277.851562 L 269.875 287.824219 L 277.917969 287.453125 L 278.65625 282.976562 L 283.492188 282.59375 L 283.089844 284.25 L 288.699219 284.234375 L 289.390625 289.6875 L 289.007812 294.710938 L 291.046875 298.097656 L 290.710938 302.078125 Z M 298.390625 300.371094 "/>
<path style="fill:none;stroke-width:0.75;stroke-linecap:round;stroke-linejoin:round;stroke:rgb(0%,0%,0%);stroke-opacity:1;stroke-miterlimit:10;" d="M 250.03125 272.394531 L 247.238281 274.265625 L 246.199219 277.421875 L 245.308594 274.105469 L 249.058594 271.359375 Z M 250.03125 272.394531 "/>
<path style="fill:none;stroke-width:0.75;stroke-linecap:round;stroke-linejoin:round;stroke:rgb(0%,0%,0%);stroke-opacity:1;stroke-miterlimit:10;" d="M 327.628906 262.457031 L 328.832031 265.023438 L 325.179688 270.777344 L 323.632812 271.570312 L 321.644531 266.605469 L 320.796875 263.878906 L 323.824219 264.265625 L 324.863281 262.082031 Z M 327.628906 262.457031 "/>
<path style="fill:none;stroke-width:0.75;stroke-linecap:round;stroke-linejoin:round;stroke:rgb(0%,0%,0%);stroke-opacity:1;stroke-miterlimit:10;" d="M 207.960938 199.515625 L 209.03125 204.472656 L 204.085938 212.703125 L 204 223.46875 L 199.1875 224.160156 L 199.105469 211.457031 L 197.90625 207.195312 L 195.410156 205.523438 L 196 202.695312 L 198.386719 200.519531 L 200.921875 200.734375 L 202.605469 198.605469 L 203.550781 197.085938 L 205.808594 197.457031 Z M 207.960938 199.515625 "/>
<path style="fill:none;stroke-width:0.75;stroke-linecap:round;stroke-linejoin:round;stroke:rgb(0%,0%,0%);stroke-opacity:1;stroke-miterlimit:10;" d="M 192.96875 184.847656 L 192.675781 186.519531 L 196.3125 193.28125 L 201.359375 194.929688 L 202.605469 198.605469 L 200.921875 200.734375 L 198.386719 200.519531 L 196 202.695312 L 191.261719 202.054688 L 188.90625 202.691406 L 179.785156 202.726562 L 180.058594 209.480469 L 177.78125 207.59375 L 171.21875 208.613281 L 167.484375 205.261719 L 168.546875 198.875 L 171.753906 197.457031 L 174.367188 191.445312 L 177.257812 191.226562 L 179.386719 188.824219 L 183.015625 188.113281 L 188.65625 184.117188 Z M 192.96875 184.847656 "/>
<path style="fill:none;stroke-width:0.75;stroke-linecap:round;stroke-linejoin:round;stroke:rgb(0%,0%,0%);stroke-opacity:1;stroke-miterlimit:10;" d="M 304.125 332.085938 L 307.988281 340.082031 L 314.949219 344.84375 L 316.433594 349.929688 L 320.898438 350.980469 L 322.28125 352.839844 L 317.792969 354.75 L 311.867188 359.871094 L 311.183594 362.796875 L 306.828125 365.238281 L 305.578125 369.511719 L 302.078125 370.546875 L 294.125 367.992188 L 292.847656 371.308594 L 288.265625 375.628906 L 283.84375 375.808594 L 284.511719 372.035156 L 280.695312 365.257812 L 280.679688 351.949219 L 285.089844 351.949219 L 285.105469 334.539062 L 295.476562 333.089844 L 296.722656 335.28125 L 299.34375 333.183594 Z M 304.125 332.085938 "/>
<path style="fill:none;stroke-width:0.75;stroke-linecap:round;stroke-linejoin:round;stroke:rgb(0%,0%,0%);stroke-opacity:1;stroke-miterlimit:10;" d="M 293.476562 203.03125 L 296.863281 207.59375 L 296.234375 212.652344 L 299.289062 213.074219 L 304.570312 219.144531 L 309.089844 222.195312 L 309.546875 224.644531 L 312.398438 226.144531 L 313.808594 229.257812 L 309.464844 229.328125 L 304.726562 228.105469 L 295.816406 231.410156 L 293.644531 230.359375 L 291.53125 233.425781 L 283.453125 232.203125 L 279.53125 228.96875 L 274.285156 232.664062 L 274.679688 236.351562 L 269.496094 235.324219 L 265.542969 236.410156 L 263.894531 241.867188 L 263.429688 239.082031 L 259.34375 235.097656 L 257.328125 231.257812 L 256.738281 225.457031 L 260.71875 218.304688 L 265.457031 216.75 L 266.433594 218.183594 L 270.476562 216.234375 L 274.515625 215.953125 L 276.785156 211.609375 L 282.707031 211.058594 L 291.699219 202.660156 Z M 293.476562 203.03125 "/>
<path style="fill:none;stroke-width:0.75;stroke-linecap:round;stroke-linejoin:round;stroke:rgb(0%,0%,0%);stroke-opacity:1;stroke-miterlimit:10;" d="M 167.484375 205.261719 L 171.21875 208.613281 L 177.78125 207.59375 L 180.058594 209.480469 L 180.871094 215.230469 L 177.515625 222.355469 L 179.375 228.910156 L 174.261719 228.539062 L 166.023438 229.4375 L 158.523438 232.457031 L 158.941406 225.800781 L 153.738281 222.914062 L 154.332031 218.148438 L 155.46875 218.210938 L 157.082031 209.835938 L 156.53125 206.449219 L 161.105469 206.34375 L 164.273438 203.925781 L 165.292969 206.324219 Z M 167.484375 205.261719 "/>
<path style="fill:none;stroke-width:0.75;stroke-linecap:round;stroke-linejoin:round;stroke:rgb(0%,0%,0%);stroke-opacity:1;stroke-miterlimit:10;" d="M 260.71875 218.304688 L 256.738281 225.457031 L 257.328125 231.257812 L 259.34375 235.097656 L 263.429688 239.082031 L 263.894531 241.867188 L 263.726562 244.09375 L 255.328125 242.238281 L 251.011719 242.199219 L 242.257812 242.179688 L 235.496094 241.398438 L 236.03125 237.457031 L 234.695312 234.203125 L 231.820312 233.578125 L 230.148438 230.394531 L 231.308594 225.792969 L 236.917969 220.671875 L 239.0625 220.386719 L 242.246094 223.160156 L 248.839844 212.4375 L 249.089844 209.957031 L 254.066406 201.414062 L 256.777344 200.417969 L 257.117188 197.375 L 254.941406 196.382812 L 254.4375 193.246094 L 256.175781 193.210938 L 257.222656 195.695312 L 259.183594 200.261719 L 258.875 203.597656 L 261.605469 207.21875 L 254.949219 207.277344 L 253.910156 208.8125 L 259.398438 214.019531 Z M 260.71875 218.304688 "/>
<path style="fill:none;stroke-width:0.75;stroke-linecap:round;stroke-linejoin:round;stroke:rgb(0%,0%,0%);stroke-opacity:1;stroke-miterlimit:10;" d="M 313.808594 229.257812 L 318.082031 232.789062 L 322.757812 231.046875 L 328.894531 236.292969 L 328.308594 240.863281 L 330.800781 242.160156 L 330.171875 243.722656 L 327.289062 246.296875 L 324.847656 248.3125 L 323.785156 252.234375 L 323.574219 253.949219 L 323.292969 257.980469 L 321.710938 259.28125 L 320.171875 262.796875 L 320.796875 263.878906 L 321.644531 266.605469 L 321.15625 274.34375 L 322.941406 281.640625 L 325.980469 284.617188 L 327.695312 288.417969 L 320.253906 289.582031 L 319.839844 290.726562 L 318.578125 293.617188 L 319.109375 298.757812 L 317.875 302.949219 L 320.863281 307.167969 L 324.277344 306.15625 L 324.269531 311.9375 L 321.476562 311.984375 L 317.796875 307.503906 L 314.683594 306.789062 L 312.648438 303.507812 L 310.503906 305.535156 L 304.535156 303.851562 L 304.210938 301.832031 L 299.800781 302.652344 L 298.390625 300.371094 L 290.710938 302.078125 L 291.046875 298.097656 L 289.007812 294.710938 L 289.390625 289.6875 L 288.699219 284.234375 L 283.089844 284.25 L 283.492188 282.59375 L 278.65625 282.976562 L 277.917969 287.453125 L 269.875 287.824219 L 264.421875 277.851562 L 250.519531 277.859375 L 246.199219 277.421875 L 247.238281 274.265625 L 250.03125 272.394531 L 251.296875 273.105469 L 255.777344 270.804688 L 257.832031 273.195312 L 264.03125 266.40625 L 264.046875 261.25 L 266.75 257.402344 L 270.789062 254.121094 L 272.21875 242.207031 L 274.679688 236.351562 L 274.285156 232.664062 L 279.53125 228.96875 L 283.453125 232.203125 L 291.53125 233.425781 L 293.644531 230.359375 L 295.816406 231.410156 L 304.726562 228.105469 L 309.464844 229.328125 Z M 313.808594 229.257812 "/>
<path style="fill:none;stroke-width:0.75;stroke-linecap:round;stroke-linejoin:round;stroke:rgb(0%,0%,0%);stroke-opacity:1;stroke-miterlimit:10;" d="M 274.679688 236.351562 L 272.21875 242.207031 L 270.789062 254.121094 L 266.75 257.402344 L 264.046875 261.25 L 264.03125 266.40625 L 257.832031 273.195312 L 255.777344 270.804688 L 251.296875 273.105469 L 250.03125 272.394531 L 249.058594 271.359375 L 245.308594 274.105469 L 241.332031 269.285156 L 245.019531 266.46875 L 244.824219 262.6875 L 249.554688 262.304688 L 252.09375 261.421875 L 254.410156 261.957031 L 256.199219 258.671875 L 256.359375 254.597656 L 253.394531 252.707031 L 256.222656 247.742188 L 254.960938 245.664062 L 250.816406 246.371094 L 251.011719 242.199219 L 255.328125 242.238281 L 263.726562 244.09375 L 263.894531 241.867188 L 265.542969 236.410156 L 269.496094 235.324219 Z M 274.679688 236.351562 "/>
<path style="fill:none;stroke-width:0.75;stroke-linecap:round;stroke-linejoin:round;stroke:rgb(0%,0%,0%);stroke-opacity:1;stroke-miterlimit:10;" d="M 386.714844 306.355469 L 384.882812 305.726562 L 384.039062 304.632812 L 383.863281 302.519531 L 385.191406 302.394531 L 386.738281 305.011719 Z M 386.714844 306.355469 "/>
<path style="fill:none;stroke-width:0.75;stroke-linecap:round;stroke-linejoin:round;stroke:rgb(0%,0%,0%);stroke-opacity:1;stroke-miterlimit:10;" d="M 85.921875 180.730469 L 89.320312 181.300781 L 90.574219 183.03125 L 88.4375 184.714844 L 85.105469 184.25 L 84.210938 182.507812 Z M 85.921875 180.730469 "/>
<path style="fill:none;stroke-width:0.75;stroke-linecap:round;stroke-linejoin:round;stroke:rgb(0%,0%,0%);stroke-opacity:1;stroke-miterlimit:10;" d="M 383.941406 200.457031 L 382.535156 202.667969 L 377.484375 202.257812 L 377.480469 201.382812 L 380.121094 196.019531 L 383.394531 194.917969 L 384.546875 198.113281 L 381.78125 199.460938 Z M 383.941406 200.457031 "/>
<path style="fill:none;stroke-width:0.75;stroke-linecap:round;stroke-linejoin:round;stroke:rgb(0%,0%,0%);stroke-opacity:1;stroke-miterlimit:10;" d="M 230.183594 75.117188 L 229.058594 77.835938 L 228.558594 87.660156 L 225.199219 91.710938 L 226.402344 95.367188 L 232.148438 101.355469 L 234.253906 110.914062 L 235.617188 116.535156 L 235.65625 129.707031 L 233.730469 131.644531 L 236.53125 137.824219 L 243.34375 140.703125 L 245.128906 144.339844 L 235.160156 150.71875 L 225.214844 157.023438 L 217.910156 163.613281 L 210.769531 165.199219 L 206.683594 165.953125 L 206.277344 162.128906 L 200.394531 160.0625 L 197.085938 155.933594 L 180.796875 144.421875 L 170.59375 137.148438 L 153.453125 125.824219 L 153.453125 123.867188 L 153.457031 118.882812 L 158.175781 115.207031 L 166.445312 114.0625 L 172.589844 109.472656 L 175.816406 108.429688 L 175.753906 103.570312 L 180.828125 101.039062 L 186.449219 101.300781 L 187.347656 99.015625 L 184.566406 95.207031 L 184.140625 87.15625 L 182.132812 85.273438 L 196.636719 77.625 L 205.015625 75.84375 L 213.246094 75.363281 L 215.238281 76.71875 L 224.773438 74.320312 Z M 230.183594 75.117188 "/>
<path style="fill:none;stroke-width:0.75;stroke-linecap:round;stroke-linejoin:round;stroke:rgb(0%,0%,0%);stroke-opacity:1;stroke-miterlimit:10;" d="M 343.8125 105.304688 L 344.027344 105.839844 L 346.859375 114.695312 L 343.269531 123.242188 L 339.546875 119.433594 L 336.578125 112.316406 L 335.542969 114.132812 L 337.902344 119.320312 L 340.757812 122.445312 L 342.984375 129.175781 L 349.644531 142.113281 L 350.449219 147.167969 L 355.722656 151.667969 L 339.289062 151.667969 L 317.578125 151.671875 L 302.890625 151.667969 L 302.890625 116.265625 L 301.589844 111.347656 L 303.640625 103.523438 L 313.371094 105.023438 L 320.851562 107.832031 L 326.773438 104.292969 L 333.679688 104.214844 L 336.179688 105.898438 L 339.074219 106.699219 Z M 343.8125 105.304688 "/>
<path style="fill:none;stroke-width:0.75;stroke-linecap:round;stroke-linejoin:round;stroke:rgb(0%,0%,0%);stroke-opacity:1;stroke-miterlimit:10;" d="M 383.394531 194.917969 L 380.121094 196.019531 L 373.253906 188.539062 L 365.453125 186.101562 L 362.574219 187.113281 L 360.195312 184.992188 L 358.746094 188.488281 L 357.542969 186.925781 L 354.136719 187.816406 L 353.679688 183.925781 L 355.992188 178.664062 L 356.242188 174.863281 L 361.609375 172.773438 L 363.347656 170.523438 L 366.164062 179.328125 L 368.304688 183.222656 L 374.6875 186.082031 L 377 189.296875 Z M 383.394531 194.917969 "/>
<path style="fill:none;stroke-width:0.75;stroke-linecap:round;stroke-linejoin:round;stroke:rgb(0%,0%,0%);stroke-opacity:1;stroke-miterlimit:10;" d="M 380.121094 196.019531 L 377.480469 201.382812 L 377.484375 202.257812 L 382.535156 202.667969 L 381.308594 204.328125 L 384.734375 209.824219 L 387.417969 211.746094 L 400.539062 216.183594 L 404.976562 216.183594 L 398.074219 222.894531 L 391.492188 229.96875 L 387.175781 229.777344 L 377.925781 234.128906 L 372.945312 232.757812 L 368.882812 234.617188 L 367.5 236.671875 L 361.132812 235.75 L 355.546875 232.101562 L 351.449219 231.269531 L 350.953125 228.195312 L 347.800781 226.796875 L 346.179688 222.265625 L 341.664062 217.703125 L 338.710938 217.058594 L 339.257812 214.355469 L 342.792969 214.171875 L 343.238281 209.636719 L 345.527344 203.210938 L 347.144531 203.253906 L 347.574219 199.171875 L 350.101562 195.519531 L 352.242188 194.972656 L 354.136719 187.816406 L 357.542969 186.925781 L 358.746094 188.488281 L 360.195312 184.992188 L 362.574219 187.113281 L 365.453125 186.101562 L 373.253906 188.539062 Z M 380.121094 196.019531 "/>
<path style="fill:none;stroke-width:0.75;stroke-linecap:round;stroke-linejoin:round;stroke:rgb(0%,0%,0%);stroke-opacity:1;stroke-miterlimit:10;" d="M 251.011719 242.199219 L 250.816406 246.371094 L 254.960938 245.664062 L 256.222656 247.742188 L 253.394531 252.707031 L 256.359375 254.597656 L 256.199219 258.671875 L 254.410156 261.957031 L 252.09375 261.421875 L 249.554688 262.304688 L 244.824219 262.6875 L 245.019531 266.46875 L 241.332031 269.285156 L 235.953125 263.789062 L 232.082031 257.5625 L 233.351562 249.015625 L 235.519531 247.363281 L 242.320312 247.359375 L 242.257812 242.179688 Z M 251.011719 242.199219 "/>
<path style="fill:none;stroke-width:0.75;stroke-linecap:round;stroke-linejoin:round;stroke:rgb(0%,0%,0%);stroke-opacity:1;stroke-miterlimit:10;" d="M 191.261719 202.054688 L 193.757812 205.902344 L 193.019531 209.089844 L 194.863281 219.199219 L 194.300781 221.394531 L 197.257812 224.664062 L 182.71875 230.742188 L 178.148438 229.164062 L 178.167969 229.09375 L 179.375 228.910156 L 177.515625 222.355469 L 180.871094 215.230469 L 180.058594 209.480469 L 179.785156 202.726562 L 188.90625 202.691406 Z M 191.261719 202.054688 "/>
<path style="fill:none;stroke-width:0.75;stroke-linecap:round;stroke-linejoin:round;stroke:rgb(0%,0%,0%);stroke-opacity:1;stroke-miterlimit:10;" d="M 141.445312 196.300781 L 145.390625 197.933594 L 150.777344 196.628906 L 152.722656 199.6875 L 154.820312 201 L 156.53125 206.449219 L 157.082031 209.835938 L 155.46875 218.210938 L 154.332031 218.148438 L 151.488281 219.792969 L 149.832031 214.628906 L 146.355469 213.996094 L 141.957031 207.195312 L 136.472656 207.808594 L 132.953125 211.492188 L 131.652344 208.195312 L 125.320312 202.8125 L 126.804688 200.351562 L 131.050781 199.449219 L 130.800781 198.011719 L 129.832031 197.152344 L 130.925781 196.371094 L 131.058594 195.074219 L 137.128906 196.746094 Z M 141.445312 196.300781 "/>
<path style="fill:none;stroke-width:0.75;stroke-linecap:round;stroke-linejoin:round;stroke:rgb(0%,0%,0%);stroke-opacity:1;stroke-miterlimit:10;" d="M 117.628906 193.292969 L 118.480469 190.910156 L 124.980469 189.84375 L 128.789062 190.929688 L 130 191.722656 L 128.492188 192.195312 L 124.800781 190.898438 L 122.503906 191.445312 L 120.542969 192.992188 Z M 117.628906 193.292969 "/>
<path style="fill:none;stroke-width:0.75;stroke-linecap:round;stroke-linejoin:round;stroke:rgb(0%,0%,0%);stroke-opacity:1;stroke-miterlimit:10;" d="M 125.320312 202.8125 L 122.964844 199.34375 L 117.738281 196.625 L 124.546875 195.046875 L 131.058594 195.074219 L 130.925781 196.371094 L 129.832031 197.152344 L 130.800781 198.011719 L 131.050781 199.449219 L 126.804688 200.351562 Z M 125.320312 202.8125 "/>
<path style="fill:none;stroke-width:0.75;stroke-linecap:round;stroke-linejoin:round;stroke:rgb(0%,0%,0%);stroke-opacity:1;stroke-miterlimit:10;" d="M 242.257812 242.179688 L 242.320312 247.359375 L 235.519531 247.363281 L 233.488281 246.550781 L 235.496094 241.398438 Z M 242.257812 242.179688 "/>
<path style="fill:none;stroke-width:0.75;stroke-linecap:round;stroke-linejoin:round;stroke:rgb(0%,0%,0%);stroke-opacity:1;stroke-miterlimit:10;" d="M 230.6875 234.914062 L 232.1875 235.222656 L 230.597656 237.960938 L 228.546875 237.085938 Z M 230.6875 234.914062 "/>
<path style="fill:none;stroke-width:0.75;stroke-linecap:round;stroke-linejoin:round;stroke:rgb(0%,0%,0%);stroke-opacity:1;stroke-miterlimit:10;" d="M 351.449219 231.269531 L 355.546875 232.101562 L 361.132812 235.75 L 367.5 236.671875 L 368.882812 234.617188 L 372.945312 232.757812 L 377.925781 234.128906 L 373.84375 239.300781 L 373.90625 255.660156 L 376.371094 259.328125 L 370.332031 264.0625 L 367.515625 271.480469 L 365.964844 272.582031 L 358.898438 267.402344 L 359.101562 265.324219 L 343.253906 256.46875 L 344.046875 252.96875 L 342.902344 250.703125 L 347.265625 244.355469 L 347.023438 240.796875 L 342.820312 233.046875 L 349.1875 229.4375 Z M 351.449219 231.269531 "/>
<path style="fill:none;stroke-width:0.75;stroke-linecap:round;stroke-linejoin:round;stroke:rgb(0%,0%,0%);stroke-opacity:1;stroke-miterlimit:10;" d="M 154.332031 218.148438 L 153.738281 222.914062 L 158.941406 225.800781 L 158.523438 232.457031 L 150.808594 228.921875 L 145.851562 224.324219 L 141.054688 221.003906 L 144.875 217.203125 L 146.355469 213.996094 L 149.832031 214.628906 L 151.488281 219.792969 Z M 154.332031 218.148438 "/>
<path style="fill:none;stroke-width:0.75;stroke-linecap:round;stroke-linejoin:round;stroke:rgb(0%,0%,0%);stroke-opacity:1;stroke-miterlimit:10;" d="M 303.640625 103.523438 L 301.589844 111.347656 L 302.890625 116.265625 L 302.890625 151.667969 L 302.886719 161.148438 L 298.449219 161.179688 L 298.449219 163.53125 L 288.03125 158.054688 L 277.066406 152.246094 L 262.953125 144.691406 L 258.492188 146.863281 L 255.171875 148.679688 L 251.84375 145.972656 L 245.128906 144.339844 L 243.34375 140.703125 L 236.53125 137.824219 L 233.730469 131.644531 L 235.65625 129.707031 L 235.617188 116.535156 L 234.253906 110.914062 L 237.585938 107.371094 L 236.867188 104.796875 L 243.332031 99.285156 L 243.070312 95.507812 L 246.8125 97.351562 L 251.265625 96.972656 L 259.453125 99.683594 L 263.21875 105.507812 L 269.085938 106.488281 L 276.589844 110.722656 L 279.664062 109.460938 L 281.429688 105.8125 L 280.425781 103.203125 L 283.273438 98.800781 L 287.917969 96.832031 L 294.476562 98.332031 L 294.519531 100.03125 L 302.890625 101.898438 Z M 303.640625 103.523438 "/>
<path style="fill:none;stroke-width:0.75;stroke-linecap:round;stroke-linejoin:round;stroke:rgb(0%,0%,0%);stroke-opacity:1;stroke-miterlimit:10;" d="M 319.65625 384.886719 L 322.664062 388.144531 L 321.398438 391.046875 L 315.152344 394.589844 L 311.917969 389.589844 L 315.167969 385.941406 Z M 319.65625 384.886719 "/>
<path style="fill:none;stroke-width:0.75;stroke-linecap:round;stroke-linejoin:round;stroke:rgb(0%,0%,0%);stroke-opacity:1;stroke-miterlimit:10;" d="M 182.132812 85.273438 L 184.140625 87.15625 L 184.566406 95.207031 L 187.347656 99.015625 L 186.449219 101.300781 L 180.828125 101.039062 L 175.753906 103.570312 L 175.816406 108.429688 L 172.589844 109.472656 L 166.445312 114.0625 L 158.175781 115.207031 L 153.457031 118.882812 L 153.453125 123.867188 L 134.402344 122.605469 L 141.011719 120.523438 L 145.058594 117.160156 L 149.136719 111.359375 L 148.285156 104.769531 L 150.894531 98.621094 L 154.136719 94.960938 L 161.714844 90.847656 L 165.773438 81.328125 L 168.164062 80.847656 L 172.574219 84.847656 L 178.914062 83.882812 L 179.070312 84.167969 Z M 182.132812 85.273438 "/>
<path style="fill:none;stroke-width:0.75;stroke-linecap:round;stroke-linejoin:round;stroke:rgb(0%,0%,0%);stroke-opacity:1;stroke-miterlimit:10;" d="M 411.070312 305.867188 L 413.691406 310.160156 L 416.09375 321.195312 L 414.96875 323.628906 L 412.34375 321.660156 L 413.277344 326.316406 L 411.71875 332.097656 L 404.628906 354.253906 L 401.191406 366.148438 L 392.355469 369.335938 L 387.441406 366.464844 L 386.011719 363.566406 L 386.238281 358.945312 L 383.875 353.066406 L 385.125 348.648438 L 389.441406 342.023438 L 387.058594 330.507812 L 391.105469 324.800781 L 397.164062 322.40625 L 400.503906 320.066406 L 408.386719 311.882812 L 409.441406 306.972656 Z M 411.070312 305.867188 "/>
<path style="fill:none;stroke-width:0.75;stroke-linecap:round;stroke-linejoin:round;stroke:rgb(0%,0%,0%);stroke-opacity:1;stroke-miterlimit:10;" d="M 210.769531 165.199219 L 210.570312 177.90625 L 207.566406 182.808594 L 197.90625 183.132812 L 192.96875 184.847656 L 188.65625 184.117188 L 183.015625 188.113281 L 179.386719 188.824219 L 177.257812 191.226562 L 174.367188 191.445312 L 171.753906 197.457031 L 168.546875 198.875 L 167.484375 205.261719 L 165.292969 206.324219 L 164.273438 203.925781 L 161.105469 206.34375 L 156.53125 206.449219 L 154.820312 201 L 152.722656 199.6875 L 150.777344 196.628906 L 145.390625 197.933594 L 141.445312 196.300781 L 140.445312 191.941406 L 137.558594 185.472656 L 139.941406 181.945312 L 143.546875 183.964844 L 144.339844 182.492188 L 150.496094 182.15625 L 167.535156 182.164062 L 165.523438 162.945312 L 164.390625 152.492188 L 162.730469 137.152344 L 170.59375 137.148438 L 180.796875 144.421875 L 197.085938 155.933594 L 200.394531 160.0625 L 206.277344 162.128906 L 206.683594 165.953125 Z M 210.769531 165.199219 "/>
<path style="fill:none;stroke-width:0.75;stroke-linecap:round;stroke-linejoin:round;stroke:rgb(0%,0%,0%);stroke-opacity:1;stroke-miterlimit:10;" d="M 338.007812 375.582031 L 334.550781 375.550781 L 333.820312 371.179688 L 333.984375 363.652344 L 330.886719 353.851562 L 335.859375 348.558594 L 336.324219 345.109375 L 338.515625 342.585938 L 337.433594 339.90625 L 338.640625 334.601562 L 338.34375 326.914062 L 330.761719 323.871094 L 326.953125 323.765625 L 326.925781 322.082031 L 326.117188 319.070312 L 339.382812 314.632812 L 341.347656 317.328125 L 344.449219 316.34375 L 345.449219 320.402344 L 343.957031 323.253906 L 348.65625 328.992188 L 348.851562 326.636719 L 350.894531 323.785156 L 351.148438 317.628906 L 346.726562 312.347656 L 346.007812 306.3125 L 347.203125 303.523438 L 351.03125 302.796875 L 352.6875 304.105469 L 358.140625 304.199219 L 360.125 302.371094 L 362.863281 302.796875 L 371.496094 298.554688 L 371.953125 312.90625 L 373.296875 316.695312 L 372.167969 321.351562 L 368.917969 325.75 L 356.625 332.433594 L 353.929688 335.742188 L 346.222656 341.917969 L 349.769531 353.910156 L 347.835938 364.503906 L 337.917969 369.140625 L 336.339844 371.140625 Z M 338.007812 375.582031 "/>
<path style="fill:none;stroke-width:0.75;stroke-linecap:round;stroke-linejoin:round;stroke:rgb(0%,0%,0%);stroke-opacity:1;stroke-miterlimit:10;" d="M 137.558594 185.472656 L 128.328125 176.886719 L 120.265625 177.574219 L 118.566406 180.714844 L 120.777344 172.082031 L 120.042969 165.964844 L 118.65625 164.003906 L 120.109375 160.140625 L 116.503906 155.488281 L 116.71875 154.832031 L 134.222656 154.828125 L 134.222656 146.753906 L 138.585938 144.691406 L 138.660156 132.230469 L 153.464844 132.140625 L 153.453125 125.824219 L 170.59375 137.148438 L 162.730469 137.152344 L 164.390625 152.492188 L 165.523438 162.945312 L 167.535156 182.164062 L 150.496094 182.15625 L 144.339844 182.492188 L 143.546875 183.964844 L 139.941406 181.945312 Z M 137.558594 185.472656 "/>
<path style="fill:none;stroke-width:0.75;stroke-linecap:round;stroke-linejoin:round;stroke:rgb(0%,0%,0%);stroke-opacity:1;stroke-miterlimit:10;" d="M 448.1875 342.890625 L 448.585938 343.78125 L 448.003906 344.707031 L 446.636719 344.609375 L 446.378906 343.65625 L 447.132812 342.953125 Z M 448.1875 342.890625 "/>
<path style="fill:none;stroke-width:0.75;stroke-linecap:round;stroke-linejoin:round;stroke:rgb(0%,0%,0%);stroke-opacity:1;stroke-miterlimit:10;" d="M 342.53125 295.140625 L 344.125 298.402344 L 344.324219 304.0625 L 343.058594 306.3125 L 344.367188 311.808594 L 345.542969 312.621094 L 346.726562 312.347656 L 351.148438 317.628906 L 350.894531 323.785156 L 348.851562 326.636719 L 348.65625 328.992188 L 343.957031 323.253906 L 345.449219 320.402344 L 344.449219 316.34375 L 341.347656 317.328125 L 339.382812 314.632812 L 337.628906 313.195312 L 339.605469 306.089844 L 339.902344 300.105469 L 341.476562 299.015625 L 338.132812 293.746094 Z M 342.53125 295.140625 "/>
<path style="fill:none;stroke-width:0.75;stroke-linecap:round;stroke-linejoin:round;stroke:rgb(0%,0%,0%);stroke-opacity:1;stroke-miterlimit:10;" d="M 295.789062 331.371094 L 299.511719 330.621094 L 304.125 332.085938 L 299.34375 333.183594 L 296.722656 335.28125 L 295.476562 333.089844 L 285.105469 334.539062 L 285.089844 351.949219 L 280.679688 351.949219 L 280.695312 365.257812 L 280.695312 383.480469 L 276.699219 386.199219 L 269.25 384.90625 L 266.984375 381.769531 L 265.183594 384.242188 L 259.894531 377.957031 L 256.246094 362.363281 L 255.859375 353.269531 L 251.421875 346.300781 L 250.390625 343.164062 L 244.59375 333.714844 L 244.226562 329.566406 L 250.441406 328.164062 L 253.890625 330.289062 L 273.914062 330.203125 L 275.28125 331.867188 L 284.355469 333.191406 Z M 295.789062 331.371094 "/>
<path style="fill:none;stroke-width:0.75;stroke-linecap:round;stroke-linejoin:round;stroke:rgb(0%,0%,0%);stroke-opacity:1;stroke-miterlimit:10;" d="M 258.492188 146.863281 L 259.382812 154 L 262.816406 159.386719 L 261.847656 161.613281 L 260.589844 175.773438 L 255.78125 180.984375 L 251.699219 187.28125 L 252.382812 190.367188 L 247.363281 193.296875 L 239.382812 191.878906 L 234.792969 194.394531 L 230.523438 193.9375 L 226.425781 192.097656 L 222.65625 193.554688 L 220.269531 190.730469 L 216.652344 189.601562 L 210.3125 191.429688 L 208.179688 195.734375 L 207.960938 199.515625 L 205.808594 197.457031 L 203.550781 197.085938 L 202.605469 198.605469 L 201.359375 194.929688 L 196.3125 193.28125 L 192.675781 186.519531 L 192.96875 184.847656 L 197.90625 183.132812 L 207.566406 182.808594 L 210.570312 177.90625 L 210.769531 165.199219 L 217.910156 163.613281 L 225.214844 157.023438 L 235.160156 150.71875 L 245.128906 144.339844 L 251.84375 145.972656 L 255.171875 148.679688 Z M 258.492188 146.863281 "/>
<path style="fill:none;stroke-width:0.75;stroke-linecap:round;stroke-linejoin:round;stroke:rgb(0%,0%,0%);stroke-opacity:1;stroke-miterlimit:10;" d="M 254.4375 193.246094 L 254.941406 196.382812 L 257.117188 197.375 L 256.777344 200.417969 L 254.066406 201.414062 L 249.089844 209.957031 L 248.839844 212.4375 L 242.246094 223.160156 L 239.0625 220.386719 L 236.917969 220.671875 L 231.308594 225.792969 L 230.148438 230.394531 L 228.746094 231.589844 L 224.457031 231.320312 L 219.46875 232.773438 L 216.832031 231.191406 L 213.6875 225.085938 L 211.554688 223.511719 L 204 223.46875 L 204.085938 212.703125 L 209.03125 204.472656 L 207.960938 199.515625 L 208.179688 195.734375 L 210.3125 191.429688 L 216.652344 189.601562 L 220.269531 190.730469 L 222.65625 193.554688 L 226.425781 192.097656 L 230.523438 193.9375 L 234.792969 194.394531 L 239.382812 191.878906 L 247.363281 193.296875 L 252.382812 190.367188 Z M 254.4375 193.246094 "/>
<path style="fill:none;stroke-width:0.75;stroke-linecap:round;stroke-linejoin:round;stroke:rgb(0%,0%,0%);stroke-opacity:1;stroke-miterlimit:10;" d="M 327.261719 256.53125 L 328.855469 258.875 L 327.628906 262.457031 L 324.863281 262.082031 L 323.824219 264.265625 L 320.796875 263.878906 L 320.171875 262.796875 L 321.710938 259.28125 L 323.292969 257.980469 Z M 327.261719 256.53125 "/>
<path style="fill:none;stroke-width:0.75;stroke-linecap:round;stroke-linejoin:round;stroke:rgb(0%,0%,0%);stroke-opacity:1;stroke-miterlimit:10;" d="M 153.453125 123.867188 L 153.453125 125.824219 L 153.464844 132.140625 L 138.660156 132.230469 L 138.585938 144.691406 L 134.222656 146.753906 L 134.222656 154.828125 L 116.71875 154.832031 L 117.503906 152.792969 L 121.234375 143.246094 L 127.609375 131.6875 L 131.644531 128.777344 L 134.402344 122.605469 Z M 153.453125 123.867188 "/>
<path style="fill:none;stroke-width:0.75;stroke-linecap:round;stroke-linejoin:round;stroke:rgb(0%,0%,0%);stroke-opacity:1;stroke-miterlimit:10;" d="M 355.722656 151.667969 L 356.746094 155.09375 L 357.71875 165.117188 L 358.6875 167.226562 L 363.347656 170.523438 L 361.609375 172.773438 L 356.242188 174.863281 L 355.992188 178.664062 L 353.679688 183.925781 L 354.136719 187.816406 L 352.242188 194.972656 L 350.101562 195.519531 L 347.574219 199.171875 L 347.144531 203.253906 L 345.527344 203.210938 L 343.238281 209.636719 L 342.488281 206.3125 L 339.292969 203.375 L 339.414062 197.179688 L 334.410156 198.136719 L 335.882812 202.433594 L 330.648438 208.113281 L 328.492188 208.371094 L 325.226562 205.960938 L 320.035156 210.21875 L 315.824219 209 L 309.882812 209.339844 L 306.714844 205.292969 L 303.34375 205.855469 L 301.011719 212.1875 L 299.289062 213.074219 L 296.234375 212.652344 L 296.863281 207.59375 L 293.476562 203.03125 L 293.714844 200.871094 L 289.367188 193.316406 L 292.015625 188.460938 L 294.515625 181.195312 L 298.464844 181.117188 L 298.449219 163.53125 L 298.449219 161.179688 L 302.886719 161.148438 L 302.890625 151.667969 L 317.578125 151.671875 L 339.289062 151.667969 Z M 355.722656 151.667969 "/>
<path style="fill:none;stroke-width:0.75;stroke-linecap:round;stroke-linejoin:round;stroke:rgb(0%,0%,0%);stroke-opacity:1;stroke-miterlimit:10;" d="M 137.558594 185.472656 L 140.445312 191.941406 L 141.445312 196.300781 L 137.128906 196.746094 L 131.058594 195.074219 L 124.546875 195.046875 L 117.738281 196.625 L 117.628906 193.292969 L 120.542969 192.992188 L 122.503906 191.445312 L 124.800781 190.898438 L 128.492188 192.195312 L 130 191.722656 L 128.789062 190.929688 L 124.980469 189.84375 L 118.480469 190.910156 L 115.742188 186.03125 L 118.566406 180.714844 L 120.265625 177.574219 L 128.328125 176.886719 Z M 137.558594 185.472656 "/>
<path style="fill:none;stroke-width:0.75;stroke-linecap:round;stroke-linejoin:round;stroke:rgb(0%,0%,0%);stroke-opacity:1;stroke-miterlimit:10;" d="M 146.355469 213.996094 L 144.875 217.203125 L 141.054688 221.003906 L 136.480469 218.902344 L 133.589844 215.398438 L 132.953125 211.492188 L 136.472656 207.808594 L 141.957031 207.195312 Z M 146.355469 213.996094 "/>
<path style="fill:none;stroke-width:0.75;stroke-linecap:round;stroke-linejoin:round;stroke:rgb(0%,0%,0%);stroke-opacity:1;stroke-miterlimit:10;" d="M 382.535156 202.667969 L 383.941406 200.457031 L 388.53125 205.117188 L 391.582031 205.304688 L 395.097656 203.246094 L 398.179688 204.050781 L 402.257812 201.882812 L 409.238281 201.539062 L 415.136719 199.996094 L 417.488281 198.183594 L 419.683594 198.890625 L 419.167969 204.640625 L 417.675781 209.628906 L 413.246094 216.335938 L 409.667969 224.46875 L 404.839844 231.992188 L 396.3125 240.96875 L 389.753906 244.875 L 384.949219 249.042969 L 378.792969 255.625 L 376.371094 259.328125 L 373.90625 255.660156 L 373.84375 239.300781 L 377.925781 234.128906 L 387.175781 229.777344 L 391.492188 229.96875 L 398.074219 222.894531 L 404.976562 216.183594 L 400.539062 216.183594 L 387.417969 211.746094 L 384.734375 209.824219 L 381.308594 204.328125 Z M 382.535156 202.667969 "/>
<path style="fill:none;stroke-width:0.75;stroke-linecap:round;stroke-linejoin:round;stroke:rgb(0%,0%,0%);stroke-opacity:1;stroke-miterlimit:10;" d="M 343.238281 209.636719 L 342.792969 214.171875 L 339.257812 214.355469 L 338.710938 217.058594 L 341.664062 217.703125 L 346.179688 222.265625 L 347.800781 226.796875 L 350.953125 228.195312 L 351.449219 231.269531 L 349.1875 229.4375 L 342.820312 233.046875 L 340.847656 235.03125 L 334.820312 236.15625 L 333.074219 234.84375 L 328.894531 236.292969 L 322.757812 231.046875 L 318.082031 232.789062 L 313.808594 229.257812 L 312.398438 226.144531 L 309.546875 224.644531 L 309.089844 222.195312 L 304.570312 219.144531 L 299.289062 213.074219 L 301.011719 212.1875 L 303.34375 205.855469 L 306.714844 205.292969 L 309.882812 209.339844 L 315.824219 209 L 320.035156 210.21875 L 325.226562 205.960938 L 328.492188 208.371094 L 330.648438 208.113281 L 335.882812 202.433594 L 334.410156 198.136719 L 339.414062 197.179688 L 339.292969 203.375 L 342.488281 206.3125 Z M 343.238281 209.636719 "/>
<path style="fill:none;stroke-width:0.75;stroke-linecap:round;stroke-linejoin:round;stroke:rgb(0%,0%,0%);stroke-opacity:1;stroke-miterlimit:10;" d="M 221.671875 251.480469 L 220.804688 251.273438 L 220.390625 250.550781 L 220.632812 249.789062 L 221.558594 249.449219 L 222.675781 249.699219 L 222.863281 250.507812 L 222.429688 251.109375 Z M 221.671875 251.480469 "/>
<path style="fill:none;stroke-width:0.75;stroke-linecap:round;stroke-linejoin:round;stroke:rgb(0%,0%,0%);stroke-opacity:1;stroke-miterlimit:10;" d="M 333.820312 371.179688 L 334.550781 375.550781 L 333.902344 377.925781 L 330.304688 377.375 L 328.425781 374.902344 L 328.71875 372.234375 L 331.5 370.125 Z M 333.820312 371.179688 "/>
<path style="fill:none;stroke-width:0.75;stroke-linecap:round;stroke-linejoin:round;stroke:rgb(0%,0%,0%);stroke-opacity:1;stroke-miterlimit:10;" d="M 438.300781 271.898438 L 438.941406 272.460938 L 439.171875 274.03125 L 438.359375 273.703125 L 437.699219 272.65625 Z M 438.300781 271.898438 "/>
<path style="fill:none;stroke-width:0.75;stroke-linecap:round;stroke-linejoin:round;stroke:rgb(0%,0%,0%);stroke-opacity:1;stroke-miterlimit:10;" d="M 298.449219 163.53125 L 298.464844 181.117188 L 294.515625 181.195312 L 292.015625 188.460938 L 289.367188 193.316406 L 293.714844 200.871094 L 293.476562 203.03125 L 291.699219 202.660156 L 282.707031 211.058594 L 276.785156 211.609375 L 274.515625 215.953125 L 270.476562 216.234375 L 266.433594 218.183594 L 265.457031 216.75 L 260.71875 218.304688 L 259.398438 214.019531 L 253.910156 208.8125 L 254.949219 207.277344 L 261.605469 207.21875 L 258.875 203.597656 L 259.183594 200.261719 L 257.222656 195.695312 L 256.175781 193.210938 L 254.4375 193.246094 L 252.382812 190.367188 L 251.699219 187.28125 L 255.78125 180.984375 L 260.589844 175.773438 L 261.847656 161.613281 L 262.816406 159.386719 L 259.382812 154 L 258.492188 146.863281 L 262.953125 144.691406 L 277.066406 152.246094 L 288.03125 158.054688 Z M 298.449219 163.53125 "/>
<path style="fill:none;stroke-width:0.75;stroke-linecap:round;stroke-linejoin:round;stroke:rgb(0%,0%,0%);stroke-opacity:1;stroke-miterlimit:10;" d="M 196 202.695312 L 195.410156 205.523438 L 197.90625 207.195312 L 199.105469 211.457031 L 199.1875 224.160156 L 197.257812 224.664062 L 194.300781 221.394531 L 194.863281 219.199219 L 193.019531 209.089844 L 193.757812 205.902344 L 191.261719 202.054688 Z M 196 202.695312 "/>
<path style="fill:none;stroke-width:0.75;stroke-linecap:round;stroke-linejoin:round;stroke:rgb(0%,0%,0%);stroke-opacity:1;stroke-miterlimit:10;" d="M 243.070312 95.507812 L 243.332031 99.285156 L 236.867188 104.796875 L 237.585938 107.371094 L 234.253906 110.914062 L 232.148438 101.355469 L 226.402344 95.367188 L 225.199219 91.710938 L 228.558594 87.660156 L 229.058594 77.835938 L 230.183594 75.117188 L 236.085938 72.800781 L 242.1875 74.785156 L 240.757812 79.976562 L 241.539062 84.464844 L 236.949219 89.394531 L 237.851562 92.730469 Z M 243.070312 95.507812 "/>
<path style="fill:none;stroke-width:0.75;stroke-linecap:round;stroke-linejoin:round;stroke:rgb(0%,0%,0%);stroke-opacity:1;stroke-miterlimit:10;" d="M 333.082031 256.246094 L 332.320312 260.847656 L 333.273438 263.773438 L 339.46875 262.976562 L 343.253906 256.46875 L 359.101562 265.324219 L 358.898438 267.402344 L 365.964844 272.582031 L 364.132812 278.617188 L 367.179688 282.308594 L 366.359375 288.8125 L 368.503906 296.335938 L 371.496094 298.554688 L 362.863281 302.796875 L 360.125 302.371094 L 358.140625 304.199219 L 352.6875 304.105469 L 351.03125 302.796875 L 347.203125 303.523438 L 346.992188 302.824219 L 346.890625 302.71875 L 346.214844 302.144531 L 346.117188 301.988281 L 344.203125 295.097656 L 343.769531 294.640625 L 343.320312 294.261719 L 343.269531 294.207031 L 342.53125 295.140625 L 338.132812 293.746094 L 330.347656 290.066406 L 327.757812 285.21875 L 327.671875 282.75 L 324.058594 279.691406 L 324.929688 278.113281 L 323.632812 271.570312 L 325.179688 270.777344 L 328.832031 265.023438 L 327.628906 262.457031 L 328.855469 258.875 L 327.261719 256.53125 Z M 333.082031 256.246094 "/>
<path style="fill:none;stroke-width:0.75;stroke-linecap:round;stroke-linejoin:round;stroke:rgb(0%,0%,0%);stroke-opacity:1;stroke-miterlimit:10;" d="M 342.902344 250.703125 L 339.683594 250.082031 L 333.6875 252.390625 L 333.082031 256.246094 L 327.261719 256.53125 L 323.292969 257.980469 L 323.574219 253.949219 L 323.785156 252.234375 L 324.847656 248.3125 L 327.289062 246.296875 L 330.171875 243.722656 L 330.800781 242.160156 L 328.308594 240.863281 L 328.894531 236.292969 L 333.074219 234.84375 L 334.820312 236.15625 L 340.847656 235.03125 L 342.820312 233.046875 L 347.023438 240.796875 L 347.265625 244.355469 Z M 342.902344 250.703125 "/>
<path style="fill:none;stroke-width:0.75;stroke-linecap:round;stroke-linejoin:round;stroke:rgb(0%,0%,0%);stroke-opacity:1;stroke-miterlimit:10;" d="M 330.886719 353.851562 L 333.984375 363.652344 L 333.820312 371.179688 L 331.5 370.125 L 328.71875 372.234375 L 328.425781 374.902344 L 330.304688 377.375 L 333.902344 377.925781 L 334.550781 375.550781 L 338.007812 375.582031 L 335.730469 384.140625 L 330.433594 389.253906 L 326.910156 395.863281 L 318.722656 404.816406 L 312.296875 409.914062 L 305.988281 411.355469 L 302.339844 413.449219 L 292.160156 412.433594 L 284.832031 414.382812 L 280.570312 416.800781 L 274.070312 411.714844 L 271.207031 406.144531 L 273.113281 405.265625 L 272.667969 400.101562 L 268.710938 393.289062 L 265.183594 384.242188 L 266.984375 381.769531 L 269.25 384.90625 L 276.699219 386.199219 L 280.695312 383.480469 L 280.695312 365.257812 L 284.511719 372.035156 L 283.84375 375.808594 L 288.265625 375.628906 L 292.847656 371.308594 L 294.125 367.992188 L 302.078125 370.546875 L 305.578125 369.511719 L 306.828125 365.238281 L 311.183594 362.796875 L 311.867188 359.871094 L 317.792969 354.75 L 322.28125 352.839844 Z M 319.65625 384.886719 L 315.167969 385.941406 L 311.917969 389.589844 L 315.152344 394.589844 L 321.398438 391.046875 L 322.664062 388.144531 Z M 319.65625 384.886719 "/>
<path style="fill:none;stroke-width:0.75;stroke-linecap:round;stroke-linejoin:round;stroke:rgb(0%,0%,0%);stroke-opacity:1;stroke-miterlimit:10;" d="M 330.347656 290.066406 L 338.132812 293.746094 L 341.476562 299.015625 L 339.902344 300.105469 L 339.605469 306.089844 L 337.628906 313.195312 L 339.382812 314.632812 L 326.117188 319.070312 L 326.925781 322.082031 L 322.535156 322.441406 L 319.667969 326.222656 L 315.90625 327.757812 L 311.949219 332.851562 L 304.125 332.085938 L 299.511719 330.621094 L 295.789062 331.371094 L 290.136719 326.277344 L 289.582031 324.527344 L 289.566406 310.011719 L 298.535156 310.011719 L 298.390625 300.371094 L 299.800781 302.652344 L 304.210938 301.832031 L 304.535156 303.851562 L 310.503906 305.535156 L 312.648438 303.507812 L 314.683594 306.789062 L 317.796875 307.503906 L 321.476562 311.984375 L 324.269531 311.9375 L 324.277344 306.15625 L 320.863281 307.167969 L 317.875 302.949219 L 319.109375 298.757812 L 318.578125 293.617188 L 319.839844 290.726562 L 320.253906 289.582031 L 327.695312 288.417969 Z M 330.347656 290.066406 "/>
<path style="fill:none;stroke-width:0.75;stroke-linecap:round;stroke-linejoin:round;stroke:rgb(0%,0%,0%);stroke-opacity:1;stroke-miterlimit:10;" d="M 326.925781 322.082031 L 326.953125 323.765625 L 330.761719 323.871094 L 338.34375 326.914062 L 338.640625 334.601562 L 337.433594 339.90625 L 338.515625 342.585938 L 336.324219 345.109375 L 335.859375 348.558594 L 330.886719 353.851562 L 322.28125 352.839844 L 320.898438 350.980469 L 316.433594 349.929688 L 314.949219 344.84375 L 307.988281 340.082031 L 304.125 332.085938 L 311.949219 332.851562 L 315.90625 327.757812 L 319.667969 326.222656 L 322.535156 322.441406 Z M 326.925781 322.082031 "/>
</g>
</svg>
